# Blender 3.5.1
# www.blender.org
mtllib GrassTmp.mtl
o Plane
v -1.000000 -1.000000 0.000000
v 1.000000 -1.000000 0.000000
v -1.000000 1.000000 -0.000000
v 1.000000 1.000000 -0.000000
vn -0.0000 -0.0000 1.0000
vt 0.000000 0.000000
vt 1.000000 0.000000
vt 0.000000 1.000000
vt 1.000000 1.000000
s 0
usemtl Material
f 1/1/1 2/2/1 4/4/1 3/3/1
o Plane.001
v -0.900000 -1.000000 0.366026
v 0.100000 -1.000000 -1.366025
v -0.900000 1.000000 0.366025
v 0.100000 1.000000 -1.366025
vn 0.8660 -0.0000 0.5000
vt 0.000000 0.000000
vt 1.000000 0.000000
vt 0.000000 1.000000
vt 1.000000 1.000000
s 0
usemtl Material.001
f 5/5/2 6/6/2 8/8/2 7/7/2
o Plane.002
v -0.100000 -1.000000 -1.366025
v 0.900000 -1.000000 0.366026
v -0.100000 1.000000 -1.366025
v 0.900000 1.000000 0.366025
vn -0.8660 -0.0000 0.5000
vt 0.000000 0.000000
vt 1.000000 0.000000
vt 0.000000 1.000000
vt 1.000000 1.000000
s 0
usemtl Material.002
f 9/9/3 10/10/3 12/12/3 11/11/3
