# Blender 3.5.1
# www.blender.org
mtllib BuildingWall.mtl
o Cube
v 4.000000 6.000000 -1.000000
v 4.000000 -3.000000 -1.000000
v 4.000000 6.000000 0.000000
v 4.000000 -3.000000 0.000000
v -3.000000 6.000000 -1.000000
v -3.000000 -3.000000 -1.000000
v -3.000000 6.000000 0.000000
v -3.000000 -3.000000 0.000000
v 4.000000 -0.750000 -1.000000
v 4.000000 -0.750000 0.000000
v -3.000000 -0.750000 -1.000000
v -3.000000 -0.750000 0.000000
vn -0.0000 1.0000 -0.0000
vn -0.0000 -0.0000 1.0000
vn -0.0000 -1.0000 -0.0000
vn -1.0000 -0.0000 -0.0000
vn 1.0000 -0.0000 -0.0000
vn -0.0000 -0.0000 -1.0000
vt 0.625000 0.500000
vt 0.814112 1.000000
vt 0.375000 0.500000
vt 0.875000 0.250000
vt 0.625000 0.750000
vt 0.938519 -0.000539
vt 0.375000 0.750000
vt 0.875000 0.500000
vt 0.375000 1.000000
vt 0.814112 0.750000
vt 0.125000 0.500000
vt 0.125000 1.000000
vt 0.875000 0.000000
vt 0.875000 0.750000
vt 0.625000 1.000000
vt 0.375000 0.750000
vt 0.938519 0.249461
vt 0.125000 0.750000
vt 0.437500 0.500000
vt 0.937500 0.250000
vt 0.626612 1.000000
vt 1.001019 -0.000539
vt 0.437500 0.750000
vt 0.187500 1.000000
vt 0.937500 0.000000
vt 0.626612 0.750000
vt 0.437500 1.000000
vt 1.001019 0.249461
vt 0.187500 0.750000
s 0
usemtl Material.002
f 1/1/1 5/8/1 7/14/1 3/5/1
f 10/23/2 3/5/2 7/15/2 12/27/2
f 6/11/3 2/3/3 4/7/3 8/18/3
f 12/29/4 7/16/4 5/9/4 11/24/4
f 9/19/5 1/1/5 3/5/5 10/23/5
f 4/6/2 10/22/2 12/28/2 8/17/2
f 8/18/4 12/29/4 11/24/4 6/12/4
f 2/3/5 9/19/5 10/23/5 4/7/5
f 6/13/6 11/25/6 9/20/6 2/4/6
f 11/26/6 5/10/6 1/2/6 9/21/6
