# Blender 3.5.1
# www.blender.org
mtllib FloorT5.mtl
o Cube
v -156.062149 -26.385199 160.381851
v -156.062149 -23.346367 160.381851
v -160.380630 -26.385199 -160.394669
v -160.380630 -23.346367 -160.394669
v 156.096191 -26.385199 160.381851
v 156.096191 -23.346367 160.381851
v 160.395889 -26.385199 -160.394669
v 160.395889 -23.346367 -160.394669
vn -0.9999 -0.0000 0.0135
vn -0.0000 -0.0000 -1.0000
vn 0.9999 -0.0000 0.0134
vn -0.0000 -0.0000 1.0000
vn -0.0000 -1.0000 -0.0000
vn -0.0000 1.0000 -0.0000
vt -18.861130 0.316582
vt -18.340387 0.316582
vt 0.125000 0.750000
vt -18.861130 0.683417
vt -18.340387 0.683417
vt 0.875000 0.750000
vt 19.861683 0.316582
vt -18.861698 0.316582
vt 0.125000 0.500000
vt 19.861683 0.683417
vt -18.861698 0.683417
vt 0.875000 0.500000
vt -18.861130 0.316582
vt 19.342073 0.316582
vt 0.375000 0.750000
vt -18.861130 0.683417
vt 19.342073 0.683417
vt 0.625000 0.750000
vt 19.861115 0.316582
vt 19.861683 0.316582
vt 0.375000 0.500000
vt 19.861115 0.683417
vt 19.861683 0.683417
vt 0.625000 0.500000
s 0
f 1/1/1 2/4/1 4/10/1 3/7/1
f 3/8/2 4/11/2 8/22/2 7/19/2
f 7/20/3 8/23/3 6/16/3 5/13/3
f 5/14/4 6/17/4 2/5/4 1/2/4
f 3/9/5 7/21/5 5/15/5 1/3/5
f 8/24/6 4/12/6 2/6/6 6/18/6
