# Blender 3.5.1
# www.blender.org
mtllib FloorT4.mtl
o Cube
v -10.866957 -9.908091 9.893587
v -10.866957 -8.918090 9.893587
v -18.086739 -9.908091 -9.906414
v -18.086739 -8.918090 -9.906414
v 9.373638 -9.908091 9.893587
v 9.373638 -8.918090 9.893587
v 9.907631 -9.908091 -9.906414
v 9.907631 -8.918090 -9.906414
v -8.653078 -9.908091 19.793589
v -8.653078 -8.918090 19.793589
v 9.409461 -8.918090 20.118679
v 9.409461 -9.908091 20.118679
vn -0.9395 -0.0000 0.3426
vn -0.0000 -0.0000 -1.0000
vn 0.9996 -0.0000 0.0270
vn -0.0000 1.0000 -0.0000
vn -0.0000 -1.0000 -0.0000
vn -0.0180 -0.0000 0.9998
vn 1.0000 -0.0000 -0.0035
vn -0.9759 -0.0000 0.2182
vt 0.402707 0.483514
vt 0.185101 0.402707
vt 0.185101 0.402707
vt 0.402707 0.516486
vt 1.062155 0.483514
vt -0.055358 0.483514
vt -0.055358 1.062155
vt 1.062155 0.516486
vt -0.055358 0.516486
vt -0.055358 1.062155
vt 0.402707 0.483514
vt 0.859223 0.402707
vt 0.859223 0.402707
vt 0.402707 0.516486
vt 0.877008 0.483514
vt 1.062155 0.483514
vt 0.877008 1.062155
vt 0.877008 0.516486
vt 1.062155 0.516486
vt 0.877008 1.062155
vt 0.258835 0.483514
vt 0.072983 0.483514
vt 0.258835 0.072983
vt 0.258835 0.072983
vt 0.258835 0.516486
vt 0.072983 0.516486
vt 0.860416 0.062155
vt 0.860416 0.516486
vt 0.062155 0.516486
vt 0.860416 0.483514
vt 0.062155 0.483514
vt 0.860416 0.062155
s 0
f 1/1/1 2/4/1 4/8/1 3/5/1
f 3/6/2 4/9/2 8/18/2 7/15/2
f 7/16/3 8/19/3 6/14/3 5/11/3
f 6/13/4 2/3/4 10/24/4 11/27/4
f 3/7/5 7/17/5 5/12/5 1/2/5
f 8/20/4 4/10/4 2/3/4 6/13/4
f 12/30/6 11/28/6 10/25/6 9/21/6
f 5/11/7 6/14/7 11/29/7 12/31/7
f 2/4/8 1/1/8 9/22/8 10/26/8
f 1/2/5 5/12/5 12/32/5 9/23/5
