# Blender 3.5.1
# www.blender.org
mtllib grass.mtl
g Plane_Plane
v 1.000000 -0.000000 0.000000
v -1.000000 0.000000 0.000000
v 1.000000 2.000000 -0.000000
v -1.000000 2.000000 -0.000000
vn -0.0000 -0.0000 -1.0000
vt 0.000000 0.000000
vt 1.000000 0.000000
vt 0.000000 1.000000
vt 1.000000 1.000000
s 0
g Plane_Grass
usemtl Grass
f 1/1/1 2/2/1 4/4/1 3/3/1
g Plane.001_Plane.001
v -0.000000 -0.000000 -1.000000
v 0.000000 0.000000 1.000000
v -0.000000 2.000000 -1.000000
v 0.000000 2.000000 1.000000
vn -1.0000 -0.0000 -0.0000
vt 0.000000 0.000000
vt 1.000000 0.000000
vt 0.000000 1.000000
vt 1.000000 1.000000
s 0
g Plane.001_Grass
usemtl Grass
f 5/5/2 6/6/2 8/8/2 7/7/2
