# Blender 3.5.1
# www.blender.org
mtllib grass.mtl
g Cube.001_Cube.002
v -0.999986 0.000000 0.001000
v -0.999986 2.000000 0.001000
v -1.000000 0.000000 0.000000
v -1.000000 2.000000 0.000000
v 1.000014 0.000000 0.001000
v 1.000014 2.000000 0.001000
v 1.000000 0.000000 0.000000
v 1.000000 2.000000 0.000000
vn -0.9999 -0.0000 0.0139
vn -0.0000 -0.0000 -1.0000
vn 0.9999 -0.0000 -0.0139
vn -0.0000 -0.0000 1.0000
vn -0.0000 -1.0000 -0.0000
vn -0.0000 1.0000 -0.0000
vt 0.375000 0.000000
vt 0.169660 0.146086
vt 0.125000 0.750000
vt 0.625000 0.000000
vt 0.169660 0.968101
vt 0.875000 0.750000
vt 0.375000 0.250000
vt 0.778450 0.147816
vt 0.125000 0.500000
vt 0.625000 0.250000
vt 0.778450 0.969831
vt 0.875000 0.500000
vt 0.778922 0.146086
vt 0.375000 0.750000
vt 0.778922 0.968101
vt 0.625000 0.750000
vt 0.171645 0.147816
vt 0.375000 0.500000
vt 0.171645 0.969831
vt 0.625000 0.500000
s 0
g Cube.001_Grass
usemtl Grass
f 1/1/1 2/4/1 4/10/1 3/7/1
f 3/8/2 4/11/2 8/19/2 7/17/2
f 7/18/3 8/20/3 6/16/3 5/14/3
f 5/13/4 6/15/4 2/5/4 1/2/4
f 3/9/5 7/18/5 5/14/5 1/3/5
f 8/20/6 4/12/6 2/6/6 6/16/6
g Cube.002_Cube.003
v 0.001000 0.000000 0.999986
v 0.001000 2.000000 0.999986
v 0.000000 0.000000 1.000000
v 0.000000 2.000000 1.000000
v 0.001000 0.000000 -1.000014
v 0.001000 2.000000 -1.000014
v -0.000000 0.000000 -1.000000
v -0.000000 2.000000 -1.000000
vn 0.0139 -0.0000 0.9999
vn -1.0000 -0.0000 -0.0000
vn -0.0139 -0.0000 -0.9999
vn 1.0000 -0.0000 -0.0000
vn -0.0000 -1.0000 -0.0000
vn -0.0000 1.0000 -0.0000
vt 0.375000 0.000000
vt 0.169660 0.146086
vt 0.125000 0.750000
vt 0.625000 0.000000
vt 0.169660 0.968101
vt 0.875000 0.750000
vt 0.375000 0.250000
vt 0.778450 0.147816
vt 0.125000 0.500000
vt 0.625000 0.250000
vt 0.778450 0.969831
vt 0.875000 0.500000
vt 0.778922 0.146086
vt 0.375000 0.750000
vt 0.778922 0.968101
vt 0.625000 0.750000
vt 0.171645 0.147816
vt 0.375000 0.500000
vt 0.171645 0.969831
vt 0.625000 0.500000
s 0
g Cube.002_Grass.001
usemtl Grass.001
f 9/21/7 10/24/7 12/30/7 11/27/7
f 11/28/8 12/31/8 16/39/8 15/37/8
f 15/38/9 16/40/9 14/36/9 13/34/9
f 13/33/10 14/35/10 10/25/10 9/22/10
f 11/29/11 15/38/11 13/34/11 9/23/11
f 16/40/12 12/32/12 10/26/12 14/36/12
