# Blender 3.5.1
# www.blender.org
mtllib PalestraWall.mtl
g Cube_Cube
v 6.000000 3.000000 0.000000
v 6.000000 -3.000000 0.000000
v 6.000000 3.000000 1.000000
v 6.000000 -3.000000 1.000000
v -1.000000 3.000000 0.000000
v -1.000000 -3.000000 0.000000
v -1.000000 3.000000 1.000000
v -1.000000 -3.000000 1.000000
vn -0.0000 1.0000 -0.0000
vn -0.0000 -0.0000 1.0000
vn -1.0000 -0.0000 -0.0000
vn -0.0000 -1.0000 -0.0000
vn 1.0000 -0.0000 -0.0000
vn -0.0000 -0.0000 -1.0000
vt 0.625000 0.500000
vt 0.174680 1.270816
vt 0.669131 1.269925
vt 0.487832 1.000000
vt 0.174680 -0.270816
vt 0.669131 -0.269926
vt 0.625000 0.750000
vt 0.666981 1.268810
vt 0.083445 1.270816
vt 0.666981 -0.268809
vt 0.469297 1.000000
vt 0.083445 -0.270816
vt 0.875000 0.500000
vt -0.005666 1.270187
vt 1.400161 1.269926
vt -0.005666 -0.270188
vt 0.487832 0.000000
vt 1.400161 -0.269925
vt 0.875000 0.750000
vt -0.062019 1.268810
vt 0.083791 1.270188
vt -0.062019 -0.268810
vt 0.083791 -0.270187
vt 0.469297 0.000000
s 0
usemtl Material
f 1/1/1 5/13/1 7/19/1 3/7/1
f 4/10/2 3/8/2 7/20/2 8/22/2
f 8/23/3 7/21/3 5/14/3 6/16/3
f 6/17/4 2/4/4 4/11/4 8/24/4
f 2/5/5 1/2/5 3/9/5 4/12/5
f 6/18/6 5/15/6 1/3/6 2/6/6
g Cube.001_Cube.001
v -0.900000 3.000000 1.000000
v -0.900000 4.084050 1.000000
v -0.900000 3.000000 0.000000
v -0.900000 4.084050 0.000000
v 0.100000 3.000000 1.000000
v 0.100000 4.084050 1.000000
v 0.100000 3.000000 0.000000
v 0.100000 4.084050 0.000000
vn -1.0000 -0.0000 -0.0000
vn -0.0000 -0.0000 -1.0000
vn 1.0000 -0.0000 -0.0000
vn -0.0000 -0.0000 1.0000
vn -0.0000 -1.0000 -0.0000
vn -0.0000 1.0000 -0.0000
vt -0.300000 0.700000
vt 1.300000 0.700000
vt 0.900000 1.100000
vt -0.300000 0.300000
vt 1.300000 0.300000
vt 0.900000 -0.100000
vt 0.100000 0.700000
vt 0.500000 1.100000
vt 0.100000 0.300000
vt 0.500000 -0.100000
vt 0.900000 0.700000
vt 0.900000 0.300000
vt 0.500000 0.700000
vt 0.500000 0.300000
s 0
usemtl Material.002
f 9/25/7 10/28/7 12/33/7 11/31/7
f 11/31/8 12/33/8 16/38/8 15/37/8
f 15/37/9 16/38/9 14/36/9 13/35/9
f 13/35/10 14/36/10 10/29/10 9/26/10
f 11/32/11 15/37/11 13/35/11 9/27/11
f 16/38/12 12/34/12 10/30/12 14/36/12
g Cube.002_Cube.002
v 6.000000 3.100000 -0.105000
v 6.000000 3.000000 -0.105000
v 6.000000 3.100000 1.105000
v 6.000000 3.000000 1.105000
v -1.000000 3.100000 -0.105000
v -1.000000 3.000000 -0.105000
v -1.000000 3.100000 1.105000
v -1.000000 3.000000 1.105000
vn -0.0000 1.0000 -0.0000
vn -0.0000 -0.0000 1.0000
vn -1.0000 -0.0000 -0.0000
vn -0.0000 -1.0000 -0.0000
vn 1.0000 -0.0000 -0.0000
vn -0.0000 -0.0000 -1.0000
vt 0.328429 -0.900000
vt -0.045455 1.550000
vt -0.010714 -0.750000
vt 0.375000 0.500000
vt 0.128099 1.550000
vt 0.025000 -0.750000
vt -0.155571 -0.900000
vt -0.004286 1.300000
vt -0.045455 -0.550000
vt 0.018571 1.300000
vt 0.375000 0.750000
vt 0.128099 -0.550000
vt 0.328429 1.900000
vt -0.041322 -0.500000
vt -0.010714 1.750000
vt 0.123967 -0.500000
vt 0.125000 0.500000
vt 0.025000 1.750000
vt -0.155571 1.900000
vt -0.004286 -0.300000
vt -0.041322 1.500000
vt 0.018571 -0.300000
vt 0.123967 1.500000
vt 0.125000 0.750000
s 0
usemtl Material.001
f 17/39/13 21/51/13 23/57/13 19/45/13
f 20/48/14 19/46/14 23/58/14 24/60/14
f 24/61/15 23/59/15 21/52/15 22/54/15
f 22/55/16 18/42/16 20/49/16 24/62/16
f 18/43/17 17/40/17 19/47/17 20/50/17
f 22/56/18 21/53/18 17/41/18 18/44/18
g Cube.003_Cube.003
v -0.950000 4.000000 1.050000
v -0.950000 4.084050 1.050000
v -0.950000 4.000000 -0.050000
v -0.950000 4.084050 -0.050000
v 0.150000 4.000000 1.050000
v 0.150000 4.084050 1.050000
v 0.150000 4.000000 -0.050000
v 0.150000 4.084050 -0.050000
v -0.400000 4.484050 0.500000
vn -1.0000 -0.0000 -0.0000
vn -0.0000 -0.0000 -1.0000
vn 1.0000 -0.0000 -0.0000
vn -0.0000 -0.0000 1.0000
vn -0.0000 -1.0000 -0.0000
vn 0.5882 0.8087 -0.0000
vn -0.0000 0.8087 0.5882
vn -0.5882 0.8087 -0.0000
vn -0.0000 0.8087 -0.5882
vt 0.375000 0.000000
vt 0.375000 1.000000
vt 0.125000 0.750000
vt 0.625000 0.000000
vt 0.625000 1.000000
vt 0.875000 0.750000
vt 0.375000 0.250000
vt 0.125000 0.500000
vt 0.625000 0.250000
vt 0.875000 0.500000
vt 0.375000 0.750000
vt 0.625000 0.750000
vt 0.375000 0.500000
vt 0.625000 0.500000
vt 0.750000 0.625000
s 0
f 25/63/19 26/66/19 28/71/19 27/69/19
f 27/69/20 28/71/20 32/76/20 31/75/20
f 31/75/21 32/76/21 30/74/21 29/73/21
f 29/73/22 30/74/22 26/67/22 25/64/22
f 27/70/23 31/75/23 29/73/23 25/65/23
f 32/76/24 33/77/24 30/74/24
f 30/74/25 33/77/25 26/68/25
f 26/68/26 33/77/26 28/72/26
f 28/72/27 33/77/27 32/76/27
