# Blender 3.5.1
# www.blender.org
mtllib BuildingWindow.mtl
o Cube.002
v -3.000000 -3.000000 1.000000
v -3.000000 -1.000000 1.000000
v -3.000000 -3.000000 -0.000000
v -3.000000 -1.000000 0.000000
v -2.000000 -3.000000 1.000000
v -2.000000 -1.000000 1.000000
v -2.000000 -3.000000 0.000000
v -2.000000 -1.000000 0.000000
v -3.000000 1.000000 1.000000
v -3.000000 1.000000 0.000000
v -2.000000 1.000000 0.000000
v -2.000000 1.000000 1.000000
v -3.000000 3.000000 1.000000
v -3.000000 3.000000 0.000000
v -2.000000 3.000000 0.000000
v -2.000000 3.000000 1.000000
v -3.000000 4.000000 1.000000
v -3.000000 4.000000 0.000000
v -2.000000 4.000000 0.000000
v -2.000000 4.000000 1.000000
v -3.000000 7.000000 1.000000
v -3.000000 7.000000 0.000000
v -2.000000 7.000000 0.000000
v -2.000000 7.000000 1.000000
v -1.000000 -1.000000 0.000000
v -1.000000 -3.000000 0.000000
v -1.000000 -3.000000 1.000000
v -1.000000 -1.000000 1.000000
v -1.000000 1.000000 0.000000
v -1.000000 1.000000 1.000000
v -1.000000 3.000000 0.000000
v -1.000000 3.000000 1.000000
v -1.000000 4.000000 0.000000
v -1.000000 4.000000 1.000000
v -1.000000 7.000000 0.000000
v -1.000000 7.000000 1.000000
v 2.000000 -1.000000 0.000000
v 2.000000 -3.000000 0.000000
v 2.000000 -3.000000 1.000000
v 2.000000 -1.000000 1.000000
v 2.000000 1.000000 0.000000
v 2.000000 1.000000 1.000000
v 2.000000 3.000000 0.000000
v 2.000000 3.000000 1.000000
v 2.000000 4.000000 0.000000
v 2.000000 4.000000 1.000000
v 2.000000 7.000000 0.000000
v 2.000000 7.000000 1.000000
v 3.000000 -1.000000 0.000000
v 3.000000 -3.000000 0.000000
v 3.000000 -3.000000 1.000000
v 3.000000 -1.000000 1.000000
v 3.000000 1.000000 0.000000
v 3.000000 1.000000 1.000000
v 3.000000 3.000000 0.000000
v 3.000000 3.000000 1.000000
v 3.000000 4.000000 0.000000
v 3.000000 4.000000 1.000000
v 3.000000 7.000000 0.000000
v 3.000000 7.000000 1.000000
v 4.000000 -1.000000 0.000000
v 4.000000 -3.000000 0.000000
v 4.000000 -3.000000 1.000000
v 4.000000 -1.000000 1.000000
v 4.000000 1.000000 0.000000
v 4.000000 1.000000 1.000000
v 4.000000 3.000000 0.000000
v 4.000000 3.000000 1.000000
v 4.000000 4.000000 0.000000
v 4.000000 4.000000 1.000000
v 4.000000 7.000000 0.000000
v 4.000000 7.000000 1.000000
v 2.000000 1.000000 0.000000
v 2.000000 1.000000 1.000000
v 3.000000 1.000000 0.000000
v 3.000000 1.000000 1.000000
v 4.000000 1.000000 0.000000
v 4.000000 1.000000 1.000000
vn -1.0000 -0.0000 -0.0000
vn -0.0000 -0.0000 -1.0000
vn -0.0000 -0.0000 1.0000
vn -0.0000 -1.0000 -0.0000
vn -0.0000 1.0000 -0.0000
vn 1.0000 -0.0000 -0.0000
vt 0.060547 0.778906
vt 0.060547 0.978906
vt 0.010547 0.928906
vt 0.110547 0.778906
vt 0.110547 0.978906
vt 0.183002 0.820238
vt 0.141049 0.820238
vt 0.060547 0.828906
vt 0.010547 0.878906
vt 0.110547 0.828906
vt 0.141049 0.820238
vt 0.196238 0.820238
vt 0.060547 0.928906
vt 0.154285 0.820238
vt 0.110547 0.928906
vt 0.060547 0.878906
vt 0.154285 0.820238
vt 0.110547 0.878906
vt 0.183002 0.846711
vt 0.141049 0.846711
vt 0.196238 0.846711
vt 0.141049 0.846711
vt 0.154285 0.846711
vt 0.154285 0.846711
vt 0.141049 0.873184
vt 0.183002 0.873184
vt 0.141049 0.873184
vt 0.196238 0.873184
vt 0.154285 0.873184
vt 0.154285 0.873184
vt 0.183002 0.886421
vt 0.141049 0.886421
vt 0.196238 0.886421
vt 0.141049 0.886421
vt 0.154285 0.886421
vt 0.154285 0.886421
vt 0.183002 0.926130
vt 0.141049 0.866117
vt 0.141049 0.926130
vt 0.196238 0.926130
vt 0.141049 0.879354
vt 0.141049 0.926130
vt 0.154285 0.879354
vt 0.154285 0.926130
vt 0.154285 0.866117
vt 0.154285 0.926130
vt 0.110547 0.878906
vt 0.167522 0.820238
vt 0.060547 0.878906
vt 0.060547 0.928906
vt 0.110547 0.928906
vt 0.167522 0.820238
vt 0.196238 0.846711
vt 0.167522 0.879354
vt 0.167522 0.846711
vt 0.183002 0.846711
vt 0.167522 0.866117
vt 0.167522 0.846711
vt 0.196238 0.873184
vt 0.167522 0.879354
vt 0.167522 0.873184
vt 0.183002 0.873184
vt 0.167522 0.866117
vt 0.167522 0.873184
vt 0.167522 0.886421
vt 0.167522 0.886421
vt 0.167522 0.926130
vt 0.167522 0.879354
vt 0.167522 0.926130
vt 0.167522 0.866117
vt 0.110547 0.878906
vt 0.207231 0.820238
vt 0.060547 0.878906
vt 0.060547 0.928906
vt 0.110547 0.928906
vt 0.207231 0.820238
vt 0.207231 0.879354
vt 0.207231 0.846711
vt 0.207231 0.866117
vt 0.207231 0.846711
vt 0.207231 0.879354
vt 0.196238 0.873184
vt 0.207231 0.873184
vt 0.207231 0.866117
vt 0.183002 0.873184
vt 0.207231 0.873184
vt 0.207231 0.886421
vt 0.207231 0.886421
vt 0.207231 0.926130
vt 0.207231 0.879354
vt 0.207231 0.866117
vt 0.207231 0.926130
vt 0.110547 0.878906
vt 0.220468 0.820238
vt 0.060547 0.878906
vt 0.060547 0.928906
vt 0.110547 0.928906
vt 0.220468 0.820238
vt 0.220468 0.879354
vt 0.220468 0.846711
vt 0.220468 0.846711
vt 0.220468 0.866117
vt 0.220468 0.873184
vt 0.220468 0.873184
vt 0.220468 0.886421
vt 0.220468 0.886421
vt 0.220468 0.926130
vt 0.220468 0.879354
vt 0.220468 0.866117
vt 0.220468 0.926130
vt 0.196238 0.820238
vt 0.110547 0.878906
vt 0.233705 0.820238
vt 0.060547 0.878906
vt 0.060547 0.928906
vt 0.233705 0.820238
vt 0.110547 0.928906
vt 0.183002 0.820238
vt 0.196238 0.846711
vt 0.233705 0.879354
vt 0.233705 0.846711
vt 0.233705 0.846711
vt 0.183002 0.846711
vt 0.233705 0.866117
vt 0.196238 0.873184
vt 0.233705 0.873184
vt 0.183002 0.873184
vt 0.233705 0.873184
vt 0.233705 0.886421
vt 0.196238 0.886421
vt 0.183002 0.886421
vt 0.233705 0.886421
vt 0.233705 0.926130
vt 0.196238 0.926130
vt 0.233705 0.879354
vt 0.183002 0.926130
vt 0.233705 0.866117
vt 0.233705 0.926130
vt 0.207231 0.879354
vt 0.196238 0.846711
vt 0.207231 0.846711
vt 0.207231 0.866117
vt 0.183002 0.846711
vt 0.207231 0.846711
vt 0.220468 0.879354
vt 0.220468 0.846711
vt 0.220468 0.866117
vt 0.220468 0.846711
vt 0.196238 0.846711
vt 0.233705 0.879354
vt 0.233705 0.846711
vt 0.183002 0.846711
vt 0.233705 0.846711
vt 0.233705 0.866117
s 0
usemtl Material.001
f 1/1/1 2/4/1 4/10/1 3/8/1
f 3/8/2 4/10/2 8/18/2 7/16/2
f 12/24/3 6/14/3 28/52/3 30/58/3
f 5/13/3 6/15/3 2/5/3 1/2/3
f 3/9/4 7/16/4 5/13/4 1/3/4
f 8/17/2 4/11/2 10/22/2 11/23/2
f 23/43/5 24/45/5 36/70/5 35/68/5
f 11/23/2 15/29/2 31/61/2 29/55/2
f 4/12/1 2/6/1 9/19/1 10/21/1
f 2/7/3 6/14/3 12/24/3 9/20/3
f 13/25/3 16/30/3 20/36/3 17/32/3
f 10/21/1 9/19/1 13/26/1 14/28/1
f 9/20/3 12/24/3 16/30/3 13/25/3
f 11/23/2 10/22/2 14/27/2 15/29/2
f 18/33/1 17/31/1 21/37/1 22/40/1
f 15/29/2 14/27/2 18/34/2 19/35/2
f 5/13/4 7/16/4 26/49/4 27/50/4
f 14/28/1 13/26/1 17/31/1 18/33/1
f 23/43/5 22/41/5 21/38/5 24/45/5
f 17/32/3 20/36/3 24/46/3 21/39/3
f 19/35/2 18/34/2 22/42/2 23/44/2
f 8/17/2 11/23/2 29/55/2 25/48/2
f 36/69/3 34/66/3 46/88/3 48/92/3
f 30/56/6 29/53/6 31/59/6 32/62/6
f 32/63/4 31/60/4 43/81/4 44/84/4
f 26/49/2 25/47/2 37/71/2 38/73/2
f 28/51/3 27/50/3 39/74/3 40/75/3
f 15/29/2 19/35/2 33/65/2 31/61/2
f 24/46/3 20/36/3 34/66/3 36/69/3
f 16/30/3 12/24/3 30/58/3 32/64/3
f 20/36/3 16/30/3 32/64/3 34/66/3
f 19/35/2 23/44/2 35/67/2 33/65/2
f 6/15/3 5/13/3 27/50/3 28/51/3
f 7/16/2 8/18/2 25/47/2 26/49/2
f 38/73/2 37/71/2 49/93/2 50/95/2
f 43/83/2 45/87/2 57/105/2 55/103/2
f 40/75/3 39/74/3 51/96/3 52/97/3
f 45/87/2 47/89/2 59/107/2 57/105/2
f 29/54/5 30/57/5 42/79/5 41/77/5
f 34/66/3 32/64/3 44/86/3 46/88/3
f 27/50/4 26/49/4 38/73/4 39/74/4
f 33/65/2 35/67/2 47/89/2 45/87/2
f 25/48/2 29/55/2 41/78/2 37/72/2
f 31/61/2 33/65/2 45/87/2 43/83/2
f 30/58/3 28/52/3 40/76/3 42/80/3
f 35/68/5 36/70/5 48/91/5 47/90/5
f 55/103/2 57/105/2 69/129/2 67/126/2
f 52/97/3 51/96/3 63/115/3 64/117/3
f 57/105/2 59/107/2 71/133/2 69/129/2
f 54/101/3 52/98/3 64/116/3 66/122/3
f 67/125/6 68/127/6 78/152/6 77/149/6
f 41/77/5 42/79/5 54/102/5 53/99/5
f 47/90/5 48/91/5 60/109/5 59/108/5
f 39/74/4 38/73/4 50/95/4 51/96/4
f 37/72/2 41/78/2 53/100/2 49/94/2
f 48/92/3 46/88/3 58/106/3 60/110/3
f 46/88/3 44/86/3 56/104/3 58/106/3
f 42/80/3 40/76/3 52/98/3 54/101/3
f 62/114/6 61/112/6 64/117/6 63/115/6
f 64/118/6 61/111/6 65/119/6 66/123/6
f 68/127/6 67/125/6 69/130/6 70/131/6
f 70/131/6 69/130/6 71/134/6 72/136/6
f 50/95/2 49/93/2 61/112/2 62/114/2
f 68/128/3 56/104/3 76/148/3 78/153/3
f 53/99/5 54/102/5 66/124/5 65/120/5
f 59/108/5 60/109/5 72/137/5 71/135/5
f 51/96/4 50/95/4 62/114/4 63/115/4
f 49/94/2 53/100/2 65/121/2 61/113/2
f 60/110/3 58/106/3 70/132/3 72/138/3
f 58/106/3 56/104/3 68/128/3 70/132/3
f 74/142/4 73/139/4 75/145/4 76/147/4
f 76/147/4 75/145/4 77/150/4 78/154/4
f 44/85/1 43/82/1 73/140/1 74/143/1
f 43/83/2 55/103/2 75/146/2 73/141/2
f 55/103/2 67/126/2 77/151/2 75/146/2
f 56/104/3 44/86/3 74/144/3 76/148/3
