# Blender 3.5.1
# www.blender.org
mtllib BuildingSingleCarpet.mtl
g Cube.001_Cube
v -4.000000 6.688764 0.529774
v -4.000000 6.780815 0.568847
v -4.000000 10.986807 -9.595779
v -4.000000 11.078857 -9.556706
v 3.000000 6.688764 0.529774
v 3.000000 6.780815 0.568847
v 3.000000 10.986807 -9.595779
v 3.000000 11.078857 -9.556706
v -0.500000 10.986807 -9.595779
v -0.500000 11.078857 -9.556706
v -0.500000 6.688764 0.529774
v -0.500000 6.780815 0.568847
v 1.250000 11.078857 -9.556706
v 1.250000 6.688764 0.529774
v 1.250000 10.986807 -9.595779
v 1.250000 6.780815 0.568847
v -2.250000 10.986807 -9.595779
v -2.250000 6.780815 0.568847
v -2.250000 11.078857 -9.556706
v -2.250000 6.688764 0.529774
v -3.125000 10.986807 -9.595779
v -3.125000 6.780815 0.568847
v -3.125000 11.078857 -9.556706
v -3.125000 6.688764 0.529774
v -1.375000 11.078857 -9.556706
v -1.375000 6.688764 0.529774
v -1.375000 10.986807 -9.595779
v -1.375000 6.780815 0.568847
v 0.375000 10.986807 -9.595779
v 0.375000 6.780815 0.568847
v 0.375000 11.078857 -9.556706
v 0.375000 6.688764 0.529774
v 2.125000 11.078857 -9.556706
v 2.125000 6.688764 0.529774
v 2.125000 10.986807 -9.595779
v 2.125000 6.780815 0.568847
v 2.562500 11.170908 -9.517633
v 2.562500 6.688764 0.529774
v 2.562500 10.986807 -9.595779
v 2.562500 6.872865 0.607920
v 1.687500 10.986807 -9.595779
v 1.687500 6.872865 0.607920
v 1.687500 11.170908 -9.517633
v 1.687500 6.688764 0.529774
v 0.841667 11.170908 -9.517633
v 0.841667 6.688764 0.529774
v 0.841667 10.986807 -9.595779
v 0.841667 6.872865 0.607920
v -0.062500 10.986807 -9.595779
v -0.062500 6.872865 0.607920
v -0.062500 11.170908 -9.517633
v -0.062500 6.688764 0.529774
v -0.937500 11.170908 -9.517633
v -0.937500 6.688764 0.529774
v -0.937500 10.986807 -9.595779
v -0.937500 6.872865 0.607920
v -1.812500 10.986807 -9.595779
v -1.812500 6.872865 0.607920
v -1.812500 11.170908 -9.517633
v -1.812500 6.688764 0.529774
v -2.687500 11.170908 -9.517633
v -2.687500 6.688764 0.529774
v -2.687500 10.986807 -9.595779
v -2.687500 6.872865 0.607920
v -3.562500 10.986807 -9.595779
v -3.562500 6.872865 0.607920
v -3.562500 11.170908 -9.517633
v -3.562500 6.688764 0.529774
vn -1.0000 -0.0000 -0.0000
vn -0.0000 0.3907 -0.9205
vn 1.0000 -0.0000 -0.0000
vn -0.0000 -0.3907 0.9205
vn -0.0000 -0.9205 -0.3907
vn -0.2228 0.8974 0.3809
vn -0.2095 0.9001 0.3821
vn 0.2228 0.8974 0.3809
vn 0.2379 0.8941 0.3795
vt 0.016667 0.493251
vt 0.192269 0.493251
vt 0.192269 0.000000
vt 0.016667 0.502342
vt 0.192269 0.502342
vt 0.192269 0.000000
vt 0.983333 0.493251
vt 0.192269 0.493251
vt 0.192269 1.000000
vt 0.983333 0.502342
vt 0.192269 1.000000
vt 0.192269 0.502342
vt 0.016667 0.493251
vt 0.807420 0.000000
vt 0.807420 0.493251
vt 0.016667 0.502342
vt 0.807420 0.502342
vt 0.807420 0.000000
vt 0.807420 0.493251
vt 0.983333 0.493251
vt 0.807420 1.000000
vt 0.807420 0.502342
vt 0.983333 0.502342
vt 0.807420 1.000000
vt 0.499845 1.000000
vt 0.499845 0.493251
vt 0.499845 0.502342
vt 0.499845 1.000000
vt 0.499845 0.000000
vt 0.499845 0.493251
vt 0.499845 0.000000
vt 0.499845 0.502342
vt 0.653633 0.502342
vt 0.653633 1.000000
vt 0.653633 0.000000
vt 0.653633 0.493251
vt 0.653633 0.493251
vt 0.653633 1.000000
vt 0.653633 0.000000
vt 0.653633 0.502342
vt 0.346057 1.000000
vt 0.346057 0.493251
vt 0.346057 0.502342
vt 0.346057 0.000000
vt 0.346057 0.502342
vt 0.346057 1.000000
vt 0.346057 0.000000
vt 0.346057 0.493251
vt 0.269163 1.000000
vt 0.269163 0.493251
vt 0.269163 0.000000
vt 0.269163 0.502342
vt 0.269163 0.502342
vt 0.269163 1.000000
vt 0.269163 0.000000
vt 0.269163 0.493251
vt 0.422951 0.502342
vt 0.422951 1.000000
vt 0.422951 0.000000
vt 0.422951 0.493251
vt 0.422951 0.493251
vt 0.422951 1.000000
vt 0.422951 0.502342
vt 0.422951 0.000000
vt 0.576739 0.493251
vt 0.576739 1.000000
vt 0.576739 0.502342
vt 0.576739 0.000000
vt 0.576739 0.502342
vt 0.576739 1.000000
vt 0.576739 0.000000
vt 0.576739 0.493251
vt 0.730526 0.502342
vt 0.730526 1.000000
vt 0.730526 0.000000
vt 0.730526 0.493251
vt 0.730526 1.000000
vt 0.730526 0.493251
vt 0.730526 0.000000
vt 0.730526 0.502342
vt 0.768973 1.000000
vt 0.768973 0.511432
vt 0.768973 0.493251
vt 0.768973 0.000000
vt 0.768973 1.000000
vt 0.768973 0.493251
vt 0.768973 0.511432
vt 0.768973 0.000000
vt 0.692079 0.493251
vt 0.692079 1.000000
vt 0.692079 0.000000
vt 0.692079 0.511432
vt 0.692079 0.511432
vt 0.692079 1.000000
vt 0.692079 0.000000
vt 0.692079 0.493251
vt 0.617749 1.000000
vt 0.617749 0.511432
vt 0.617749 0.493251
vt 0.617749 0.000000
vt 0.617749 0.493251
vt 0.617749 1.000000
vt 0.617749 0.000000
vt 0.617749 0.511432
vt 0.538292 1.000000
vt 0.538292 0.493251
vt 0.538292 0.511432
vt 0.538292 0.000000
vt 0.538292 0.511432
vt 0.538292 1.000000
vt 0.538292 0.000000
vt 0.538292 0.493251
vt 0.461398 1.000000
vt 0.461398 0.511432
vt 0.461398 0.493251
vt 0.461398 0.000000
vt 0.461398 0.493251
vt 0.461398 1.000000
vt 0.461398 0.000000
vt 0.461398 0.511432
vt 0.384504 1.000000
vt 0.384504 0.493251
vt 0.384504 0.511432
vt 0.384504 0.000000
vt 0.384504 0.511432
vt 0.384504 1.000000
vt 0.384504 0.000000
vt 0.384504 0.493251
vt 0.307610 1.000000
vt 0.307610 0.511432
vt 0.307610 0.493251
vt 0.307610 0.000000
vt 0.307610 1.000000
vt 0.307610 0.493251
vt 0.307610 0.511432
vt 0.307610 0.000000
vt 0.230716 0.493251
vt 0.230716 1.000000
vt 0.230716 0.000000
vt 0.230716 0.511432
vt 0.230716 0.511432
vt 0.230716 1.000000
vt 0.230716 0.000000
vt 0.230716 0.493251
s 0
g Cube.001_Material
usemtl Material
f 1/1/1 2/4/1 4/10/1 3/7/1
f 39/86/2 37/82/2 8/22/2 7/19/2
f 7/20/3 8/23/3 6/16/3 5/13/3
f 68/144/4 66/140/4 2/5/4 1/2/4
f 39/85/5 7/21/5 5/14/5 38/84/5
f 67/142/6 4/11/6 2/6/6 66/139/6
f 51/110/6 10/28/6 12/31/6 50/108/6
f 55/118/5 9/25/5 11/29/5 54/116/5
f 52/112/4 50/107/4 12/32/4 11/30/4
f 55/117/2 53/114/2 10/27/2 9/26/2
f 44/96/4 42/92/4 16/40/4 14/36/4
f 43/94/6 13/34/6 16/39/6 42/91/6
f 47/102/5 15/38/5 14/35/5 46/100/5
f 47/101/2 45/98/2 13/33/2 15/37/2
f 63/134/2 61/130/2 19/45/2 17/42/2
f 63/133/5 17/41/5 20/47/5 62/132/5
f 59/126/6 19/46/6 18/44/6 58/124/6
f 60/128/4 58/123/4 18/43/4 20/48/4
f 65/138/5 21/49/5 24/55/5 68/143/5
f 65/137/2 67/141/2 23/53/2 21/50/2
f 61/129/6 23/54/6 22/51/6 64/136/6
f 62/131/4 64/135/4 22/52/4 24/56/4
f 54/115/4 56/120/4 28/63/4 26/60/4
f 53/113/6 25/58/6 28/64/6 56/119/6
f 57/122/2 59/125/2 25/57/2 27/61/2
f 57/121/5 27/62/5 26/59/5 60/127/5
f 49/106/2 51/109/2 31/69/2 29/65/2
f 49/105/5 29/66/5 32/71/5 52/111/5
f 46/99/4 48/104/4 30/67/4 32/72/4
f 45/97/7 31/70/7 30/68/7 48/103/7
f 37/81/6 33/74/6 36/79/6 40/88/6
f 38/83/4 40/87/4 36/80/4 34/76/4
f 41/90/5 35/77/5 34/75/5 44/95/5
f 41/89/2 43/93/2 33/73/2 35/78/2
f 5/15/4 6/17/4 40/87/4 38/83/4
f 8/24/8 37/81/8 40/88/8 6/18/8
f 35/77/5 39/85/5 38/84/5 34/75/5
f 35/78/2 33/73/2 37/82/2 39/86/2
f 15/37/2 13/33/2 43/93/2 41/89/2
f 15/38/5 41/90/5 44/95/5 14/35/5
f 33/74/8 43/94/8 42/91/8 36/79/8
f 34/76/4 36/80/4 42/92/4 44/96/4
f 13/34/9 45/97/9 48/103/9 16/39/9
f 14/36/4 16/40/4 48/104/4 46/99/4
f 29/65/2 31/69/2 45/98/2 47/101/2
f 29/66/5 47/102/5 46/100/5 32/71/5
f 9/25/5 49/105/5 52/111/5 11/29/5
f 9/26/2 10/27/2 51/109/2 49/106/2
f 32/72/4 30/67/4 50/107/4 52/112/4
f 31/70/8 51/110/8 50/108/8 30/68/8
f 10/28/8 53/113/8 56/119/8 12/31/8
f 11/30/4 12/32/4 56/120/4 54/115/4
f 27/61/2 25/57/2 53/114/2 55/117/2
f 27/62/5 55/118/5 54/116/5 26/59/5
f 17/41/5 57/121/5 60/127/5 20/47/5
f 17/42/2 19/45/2 59/125/2 57/122/2
f 26/60/4 28/63/4 58/123/4 60/128/4
f 25/58/8 59/126/8 58/124/8 28/64/8
f 20/48/4 18/43/4 64/135/4 62/131/4
f 19/46/8 61/129/8 64/136/8 18/44/8
f 21/49/5 63/133/5 62/132/5 24/55/5
f 21/50/2 23/53/2 61/130/2 63/134/2
f 3/8/2 4/12/2 67/141/2 65/137/2
f 3/9/5 65/138/5 68/143/5 1/3/5
f 23/54/8 67/142/8 66/139/8 22/51/8
f 24/56/4 22/52/4 66/140/4 68/144/4
g Cube_Cube.001
v -4.000000 6.700000 0.300000
v -4.000000 6.800000 0.300000
v -4.000000 6.700000 -9.200000
v -4.000000 10.900001 -9.200000
v 3.000000 6.700000 0.300000
v 3.000000 6.800000 0.300000
v 3.000000 6.700000 -9.200000
v 3.000000 10.900001 -9.200000
v -0.500000 6.700000 -9.200000
v -0.500000 10.900001 -9.200000
v -0.500000 6.700000 0.300000
v -0.500000 6.800000 0.300000
v 1.250000 10.900001 -9.200000
v 1.250000 6.700000 0.300000
v 1.250000 6.700000 -9.200000
v 1.250000 6.800000 0.300000
v 2.125000 10.900001 -9.200000
v 2.125000 6.700000 0.300000
v 2.125000 6.700000 -9.200000
v 2.125000 6.800000 0.300000
v -2.250000 6.700000 -9.200000
v -2.250000 6.800000 0.300000
v -2.250000 10.900001 -9.200000
v -2.250000 6.700000 0.300000
v -3.125000 6.700000 -9.200000
v -3.125000 6.800000 0.300000
v -3.125000 10.900001 -9.200000
v -3.125000 6.700000 0.300000
v -3.562500 6.700000 -9.200000
v -3.562500 6.800000 0.300000
v -3.562500 10.900001 -9.200000
v -3.562500 6.700000 0.300000
v 2.562500 10.900001 -9.200000
v 2.562500 6.700000 0.300000
v 2.562500 6.700000 -9.200000
v 2.562500 6.800000 0.300000
v -4.000000 6.700000 -9.200000
v -4.000000 6.700000 0.300000
v -3.562500 6.700000 -9.200000
v 3.000000 6.700000 0.300000
v 3.000000 6.700000 -9.200000
v 2.562500 6.700000 0.300000
v -3.562500 6.700000 0.300000
v 2.562500 6.700000 -9.200000
vn -1.0000 -0.0000 -0.0000
vn -0.0000 -0.0000 -1.0000
vn 1.0000 -0.0000 -0.0000
vn -0.0000 -0.0000 1.0000
vn -0.0000 1.0000 -0.0000
vn -0.0000 0.9181 0.3963
vn -0.0000 -1.0000 -0.0000
vt 0.224200 0.881813
vt 0.238411 0.881813
vt 0.238411 0.880760
vt 0.224200 0.880760
vt 0.224200 0.920497
vt 0.224200 0.881813
vt 0.138411 0.881813
vt 0.138411 0.837602
vt 0.224200 0.820497
vt 0.224200 0.837602
vt 0.238411 0.881813
vt 0.152621 0.881813
vt 0.238411 0.880760
vt 0.152621 0.880760
vt 0.152621 0.920497
vt 0.138411 0.881813
vt 0.152621 0.881813
vt 0.152621 0.837602
vt 0.138411 0.837602
vt 0.152621 0.820497
vt 0.188411 0.820497
vt 0.188411 0.881813
vt 0.188411 0.837602
vt 0.188411 0.820497
vt 0.188411 0.920497
vt 0.188411 0.881813
vt 0.188411 0.920497
vt 0.188411 0.880760
vt 0.170516 0.820497
vt 0.170516 0.837602
vt 0.170516 0.881813
vt 0.170516 0.920497
vt 0.170516 0.820497
vt 0.170516 0.881813
vt 0.170516 0.880760
vt 0.170516 0.920497
vt 0.161568 0.820497
vt 0.161568 0.837602
vt 0.161568 0.881813
vt 0.161568 0.920497
vt 0.161568 0.820497
vt 0.161568 0.881813
vt 0.161568 0.920497
vt 0.161568 0.880760
vt 0.206305 0.881813
vt 0.206305 0.820497
vt 0.206305 0.920497
vt 0.206305 0.880760
vt 0.206305 0.837602
vt 0.206305 0.820497
vt 0.206305 0.920497
vt 0.206305 0.881813
vt 0.215253 0.820497
vt 0.215253 0.881813
vt 0.215253 0.920497
vt 0.215253 0.880760
vt 0.215253 0.837602
vt 0.215253 0.820497
vt 0.215253 0.920497
vt 0.215253 0.881813
vt 0.219726 0.881813
vt 0.219726 0.820497
vt 0.219726 0.920497
vt 0.219726 0.880760
vt 0.219726 0.837602
vt 0.219726 0.820497
vt 0.219726 0.920497
vt 0.219726 0.881813
vt 0.157095 0.820497
vt 0.157095 0.837602
vt 0.157095 0.881813
vt 0.157095 0.920497
vt 0.157095 0.881813
vt 0.157095 0.820497
vt 0.157095 0.880760
vt 0.157095 0.920497
vt 0.138411 0.881813
vt 0.224200 0.881813
vt 0.238411 0.881813
vt 0.224200 0.881813
vt 0.219726 0.881813
vt 0.219726 0.820497
vt 0.238411 0.881813
vt 0.152621 0.881813
vt 0.138411 0.881813
vt 0.152621 0.881813
vt 0.157095 0.920497
vt 0.157095 0.881813
vt 0.219726 0.920497
vt 0.219726 0.881813
vt 0.157095 0.881813
vt 0.157095 0.820497
s 0
g Cube_Material.001
usemtl Material.001
f 69/146/10 70/147/10 72/152/10 71/151/10
f 103/217/11 101/214/11 76/162/11 75/161/11
f 75/160/12 76/163/12 74/157/12 73/155/12
f 100/212/13 98/208/13 70/148/13 69/145/13
f 75/160/14 73/155/14 108/227/14 109/229/14
f 99/210/15 72/153/15 70/149/15 98/207/15
f 81/173/15 78/168/15 80/171/15 84/180/15
f 89/190/16 77/165/16 79/169/16 92/195/16
f 82/175/13 84/179/13 80/172/13 79/170/13
f 89/189/11 91/193/11 78/167/11 77/166/11
f 86/183/13 88/188/13 84/179/13 82/175/13
f 85/181/15 81/173/15 84/180/15 88/187/15
f 77/165/16 83/177/16 82/176/16 79/169/16
f 77/166/11 78/167/11 81/174/11 83/178/11
f 101/213/15 85/181/15 88/187/15 104/220/15
f 102/215/13 104/219/13 88/188/13 86/183/13
f 83/177/16 87/185/16 86/184/16 82/176/16
f 83/178/11 81/174/11 85/182/11 87/186/11
f 93/198/11 95/201/11 91/193/11 89/189/11
f 93/197/16 89/190/16 92/195/16 96/203/16
f 78/168/15 91/194/15 90/191/15 80/171/15
f 79/170/13 80/172/13 90/192/13 92/196/13
f 97/206/16 93/197/16 96/203/16 100/211/16
f 97/205/11 99/209/11 95/201/11 93/198/11
f 91/194/15 95/202/15 94/199/15 90/191/15
f 92/196/13 90/192/13 94/200/13 96/204/13
f 71/150/11 72/154/11 99/209/11 97/205/11
f 103/217/14 75/161/14 109/230/14 112/235/14
f 95/202/15 99/210/15 98/207/15 94/199/15
f 96/204/13 94/200/13 98/208/13 100/212/13
f 73/156/13 74/158/13 104/219/13 102/215/13
f 76/164/15 101/213/15 104/220/15 74/159/15
f 87/185/16 103/218/16 102/216/16 86/184/16
f 87/186/11 85/182/11 101/214/11 103/217/11
f 73/156/14 102/215/14 110/232/14 108/228/14
f 71/150/14 97/205/14 107/225/14 105/222/14
f 97/206/14 100/211/14 111/233/14 107/226/14
f 102/216/14 103/218/14 112/236/14 110/231/14
f 100/212/14 69/145/14 106/224/14 111/234/14
f 69/146/14 71/151/14 105/221/14 106/223/14
f 108/228/16 110/232/16 112/236/16 109/230/16
f 106/224/16 105/222/16 107/226/16 111/234/16
