# Blender 3.5.1
# www.blender.org
mtllib BuildingWall2WindowOneBottom.mtl
g Cube_Cube
v -3.000000 -1.000000 1.000000
v -3.000000 1.000000 1.000000
v -3.000000 -1.000000 0.000000
v -3.000000 1.000000 0.000000
v -1.000000 -1.000000 1.000000
v -1.000000 1.000000 1.000000
v -1.000000 -1.000000 0.000000
v -1.000000 1.000000 0.000000
v -3.000000 -3.000000 0.000000
v -3.000000 -3.000000 1.000000
v -1.000000 -3.000000 0.000000
v -1.000000 -3.000000 1.000000
v 2.000000 -1.000000 1.000000
v 2.000000 -1.000000 0.000000
v 2.000000 -3.000000 1.000000
v 2.000000 -3.000000 0.000000
v 4.000000 -1.000000 1.000000
v 4.000000 -1.000000 0.000000
v 4.000000 -3.000000 1.000000
v 4.000000 -3.000000 0.000000
v 2.000000 1.000000 1.000000
v 2.000000 1.000000 0.000000
v 4.000000 1.000000 1.000000
v 4.000000 1.000000 0.000000
v -3.000000 3.000000 1.000000
v -3.000000 3.000000 0.000000
v -1.000000 3.000000 0.000000
v -1.000000 3.000000 1.000000
v 2.000000 3.000000 1.000000
v 2.000000 3.000000 0.000000
v 4.000000 3.000000 1.000000
v 4.000000 3.000000 0.000000
v -3.000000 12.000000 1.000000
v -3.000000 12.000000 0.000000
v -1.000000 12.000000 0.000000
v -1.000000 12.000000 1.000000
v 2.000000 12.000000 1.000000
v 2.000000 12.000000 0.000000
v 4.000000 12.000000 1.000000
v 4.000000 12.000000 0.000000
v 2.000000 3.000000 0.000000
v 2.000000 3.000000 1.000000
v 2.000000 12.000000 0.000000
v 2.000000 12.000000 1.000000
vn -1.0000 -0.0000 -0.0000
vn -0.0000 -0.0000 -1.0000
vn 1.0000 -0.0000 -0.0000
vn -0.0000 -0.0000 1.0000
vn -0.0000 -1.0000 -0.0000
vn -0.0000 1.0000 -0.0000
vt 0.177855 0.774596
vt 0.131701 0.774596
vt 0.033929 0.770992
vt 0.033929 0.856707
vt 0.177855 0.805365
vt 0.131701 0.805365
vt 0.193239 0.774596
vt 0.131701 0.774596
vt 0.033929 0.770992
vt 0.033929 0.885278
vt 0.193239 0.805365
vt 0.131701 0.805365
vt 0.177855 0.774596
vt 0.162470 0.774596
vt 0.033929 0.828135
vt 0.162470 0.842766
vt 0.177855 0.805365
vt 0.162470 0.805365
vt 0.162470 0.774596
vt 0.193239 0.774596
vt 0.162470 0.858150
vt 0.033929 0.828135
vt 0.193239 0.805365
vt 0.162470 0.805365
vt 0.056006 0.770992
vt 0.091071 0.770992
vt 0.091071 0.885278
vt 0.091071 0.770992
vt 0.084578 0.770992
vt 0.091071 0.856707
vt 0.056006 0.828135
vt 0.091071 0.828135
vt 0.084578 0.828135
vt 0.091071 0.828135
vt 0.208624 0.842766
vt 0.033929 0.913849
vt 0.208624 0.774596
vt 0.177855 0.774596
vt 0.208624 0.858150
vt 0.033929 0.913849
vt 0.208624 0.774596
vt 0.193239 0.774596
vt 0.084578 0.913849
vt 0.091071 0.913849
vt 0.091071 0.913849
vt 0.056006 0.913849
vt 0.033929 0.856707
vt 0.033929 0.970992
vt 0.177855 0.774596
vt 0.239393 0.774596
vt 0.033929 0.970992
vt 0.033929 0.885278
vt 0.239393 0.774596
vt 0.193239 0.774596
vt 0.091071 0.856707
vt 0.084578 0.970992
vt 0.091071 0.970992
vt 0.091071 0.970992
vt 0.091071 0.885278
vt 0.056006 0.970992
vt 0.177855 0.805365
vt 0.208624 0.805365
vt 0.193239 0.805365
vt 0.208624 0.805365
vt 0.239393 0.805365
vt 0.177855 0.805365
vt 0.193239 0.805365
vt 0.239393 0.805365
vt 0.131701 0.836134
vt 0.177855 0.836134
vt 0.131701 0.836134
vt 0.193239 0.836134
vt 0.193239 0.836134
vt 0.162470 0.858150
vt 0.162470 0.836134
vt 0.177855 0.836134
vt 0.162470 0.842766
vt 0.162470 0.836134
vt 0.177855 0.836134
vt 0.375000 0.750000
vt 0.208624 0.836134
vt 0.193239 0.836134
vt 0.208624 0.836134
vt 0.375000 0.500000
vt 0.239393 0.836134
vt 0.177855 0.836134
vt 0.239393 0.836134
vt 0.193239 0.836134
vt 0.131701 0.974596
vt 0.131701 0.842766
vt 0.177855 0.974596
vt 0.131701 0.974596
vt 0.131701 0.858150
vt 0.193239 0.974596
vt 0.162470 0.858150
vt 0.162470 0.974596
vt 0.162470 0.974596
vt 0.162470 0.842766
vt 0.208624 0.842766
vt 0.375000 0.750000
vt 0.208624 0.974596
vt 0.208624 0.858150
vt 0.208624 0.974596
vt 0.375000 0.500000
vt 0.239393 0.842766
vt 0.239393 0.974596
vt 0.177855 0.974596
vt 0.239393 0.858150
vt 0.239393 0.974596
vt 0.193239 0.974596
vt 0.208624 0.858150
vt 0.625000 0.500000
vt 0.208624 0.836134
vt 0.208624 0.842766
vt 0.625000 0.750000
vt 0.208624 0.836134
vt 0.625000 0.500000
vt 0.208624 0.858150
vt 0.208624 0.974596
vt 0.625000 0.750000
vt 0.208624 0.974596
vt 0.208624 0.842766
s 0
g Cube_Material
usemtl Material
f 1/1/1 2/5/1 4/11/1 3/7/1
f 3/8/2 4/12/2 8/24/2 7/19/2
f 7/20/3 8/23/3 6/17/3 5/13/3
f 5/14/4 6/18/4 2/6/4 1/2/4
f 5/15/4 1/3/4 10/28/4 12/34/4
f 6/17/3 8/23/3 27/73/3 28/76/3
f 9/25/5 11/31/5 12/33/5 10/29/5
f 3/9/2 7/22/2 11/32/2 9/26/2
f 1/4/1 3/10/1 9/27/1 10/30/1
f 12/33/5 11/31/5 16/46/5 15/43/5
f 16/45/2 14/40/2 18/51/2 20/58/2
f 5/15/4 12/34/4 15/44/4 13/36/4
f 7/21/6 5/16/6 13/35/6 14/39/6
f 11/32/2 7/22/2 14/40/2 16/45/2
f 18/52/3 17/47/3 19/55/3 20/59/3
f 15/43/5 16/46/5 20/60/5 19/56/5
f 13/36/4 15/44/4 19/57/4 17/48/4
f 18/53/2 14/41/2 22/64/2 24/68/2
f 22/63/1 21/61/1 29/79/1 30/82/1
f 17/49/3 18/54/3 24/67/3 23/66/3
f 13/37/4 17/50/4 23/65/4 21/62/4
f 14/42/1 13/38/1 21/61/1 22/63/1
f 27/75/2 26/71/2 34/92/2 35/96/2
f 25/69/4 28/78/4 36/97/4 33/89/4
f 21/62/4 23/65/4 31/85/4 29/81/4
f 23/66/3 24/67/3 32/88/3 31/86/3
f 4/11/1 2/5/1 25/70/1 26/72/1
f 2/6/4 6/18/4 28/78/4 25/69/4
f 24/68/2 22/64/2 30/83/2 32/87/2
f 8/24/2 4/12/2 26/71/2 27/75/2
f 35/95/6 34/93/6 33/90/6 36/98/6
f 38/102/6 37/99/6 39/105/6 40/108/6
f 32/87/2 30/83/2 38/103/2 40/109/2
f 30/84/1 29/80/1 37/100/1 38/104/1
f 28/77/5 27/74/5 41/111/5 42/114/5
f 26/72/1 25/70/1 33/91/1 34/94/1
f 29/81/4 31/85/4 39/106/4 37/101/4
f 31/86/3 32/88/3 40/110/3 39/107/3
f 42/115/3 41/112/3 43/117/3 44/120/3
f 36/97/4 28/78/4 42/116/4 44/121/4
f 35/95/6 36/98/6 44/122/6 43/118/6
f 27/75/2 35/96/2 43/119/2 41/113/2
