# Blender 3.5.1
# www.blender.org
mtllib BuildingWallDoor.mtl
g Cube.002_Cube.002
v -3.000000 -3.000000 1.000000
v -3.000000 -1.000000 1.000000
v -3.000000 -3.000000 -0.000000
v -3.000000 -1.000000 0.000000
v -2.000000 -3.000000 1.000000
v -2.000000 -1.000000 1.000000
v -2.000000 -3.000000 0.000000
v -2.000000 -1.000000 0.000000
v -3.000000 1.000000 1.000000
v -3.000000 1.000000 0.000000
v -2.000000 1.000000 0.000000
v -2.000000 1.000000 1.000000
v -3.000000 3.000000 1.000000
v -3.000000 3.000000 0.000000
v -2.000000 3.000000 0.000000
v -2.000000 3.000000 1.000000
v -3.000000 4.000000 1.000000
v -3.000000 4.000000 0.000000
v -2.000000 4.000000 0.000000
v -2.000000 4.000000 1.000000
v -3.000000 7.000000 1.000000
v -3.000000 7.000000 0.000000
v -2.000000 7.000000 0.000000
v -2.000000 7.000000 1.000000
v -1.000000 -1.000000 0.000000
v -1.000000 -3.000000 0.000000
v -1.000000 -3.000000 1.000000
v -1.000000 -1.000000 1.000000
v -1.000000 1.000000 0.000000
v -1.000000 1.000000 1.000000
v -1.000000 3.000000 0.000000
v -1.000000 3.000000 1.000000
v -1.000000 4.000000 0.000000
v -1.000000 4.000000 1.000000
v -1.000000 7.000000 0.000000
v -1.000000 7.000000 1.000000
v 2.000000 4.000000 0.000000
v 2.000000 4.000000 1.000000
v 2.000000 7.000000 0.000000
v 2.000000 7.000000 1.000000
v 3.000000 4.000000 0.000000
v 3.000000 4.000000 1.000000
v 3.000000 7.000000 0.000000
v 3.000000 7.000000 1.000000
v 4.000000 4.000000 0.000000
v 4.000000 4.000000 1.000000
v 4.000000 7.000000 0.000000
v 4.000000 7.000000 1.000000
v 2.000000 3.000000 0.000000
v 2.000000 3.000000 1.000000
v 3.000000 3.000000 0.000000
v 3.000000 3.000000 1.000000
v 4.000000 3.000000 0.000000
v 4.000000 3.000000 1.000000
v 2.000000 1.000000 0.000000
v 2.000000 1.000000 1.000000
v 3.000000 1.000000 0.000000
v 3.000000 1.000000 1.000000
v 4.000000 1.000000 0.000000
v 4.000000 1.000000 1.000000
v 2.000000 -1.000000 0.000000
v 2.000000 -1.000000 1.000000
v 3.000000 -1.000000 0.000000
v 3.000000 -1.000000 1.000000
v 4.000000 -1.000000 0.000000
v 4.000000 -1.000000 1.000000
v 2.000000 -3.000000 0.000000
v 2.000000 -3.000000 1.000000
v 3.000000 -3.000000 0.000000
v 3.000000 -3.000000 1.000000
v 4.000000 -3.000000 0.000000
v 4.000000 -3.000000 1.000000
vn -1.0000 -0.0000 -0.0000
vn -0.0000 -0.0000 -1.0000
vn -0.0000 -0.0000 1.0000
vn -0.0000 -1.0000 -0.0000
vn -0.0000 1.0000 -0.0000
vn 1.0000 -0.0000 -0.0000
vt 0.011416 0.858806
vt 0.011416 0.900591
vt 0.024273 0.900591
vt 0.114273 0.858806
vt 0.114273 0.900591
vt 0.182461 0.817567
vt 0.137461 0.817567
vt 0.011416 0.807377
vt 0.011416 0.900591
vt 0.075702 0.900591
vt 0.114273 0.807377
vt 0.114273 0.900591
vt 0.197461 0.817567
vt 0.137461 0.817567
vt 0.011416 0.849163
vt 0.024273 0.849163
vt 0.152461 0.817567
vt 0.114273 0.849163
vt 0.011416 0.849163
vt 0.075702 0.849163
vt 0.152461 0.817567
vt 0.114273 0.849163
vt 0.137461 0.847567
vt 0.182461 0.847567
vt 0.137461 0.847567
vt 0.197461 0.847567
vt 0.152461 0.847567
vt 0.152461 0.847567
vt 0.182461 0.877567
vt 0.137461 0.877567
vt 0.197461 0.877567
vt 0.137461 0.877567
vt 0.152461 0.877567
vt 0.152461 0.877567
vt 0.182461 0.892567
vt 0.137461 0.892567
vt 0.197461 0.892567
vt 0.137461 0.892567
vt 0.152461 0.892567
vt 0.152461 0.892567
vt 0.182461 0.937567
vt 0.137461 0.872567
vt 0.137461 0.937567
vt 0.197461 0.937567
vt 0.137461 0.887567
vt 0.137461 0.937567
vt 0.152461 0.887567
vt 0.152461 0.937567
vt 0.152461 0.937567
vt 0.152461 0.872567
vt 0.167461 0.817567
vt 0.114273 0.807377
vt 0.197461 0.817567
vt 0.114273 0.797734
vt 0.011416 0.807377
vt 0.011416 0.797734
vt 0.075702 0.797734
vt 0.011416 0.858806
vt 0.011416 0.797734
vt 0.024273 0.797734
vt 0.167461 0.817567
vt 0.114273 0.858806
vt 0.182461 0.817567
vt 0.114273 0.797734
vt 0.197461 0.847567
vt 0.167461 0.847567
vt 0.182461 0.847567
vt 0.167461 0.847567
vt 0.197461 0.877567
vt 0.167461 0.877567
vt 0.182461 0.877567
vt 0.167461 0.877567
vt 0.197461 0.892567
vt 0.167461 0.892567
vt 0.167461 0.887567
vt 0.182461 0.892567
vt 0.167461 0.892567
vt 0.167461 0.872567
vt 0.167461 0.937567
vt 0.167461 0.887567
vt 0.167461 0.872567
vt 0.167461 0.937567
vt 0.212461 0.887567
vt 0.212461 0.892567
vt 0.197461 0.892567
vt 0.212461 0.872567
vt 0.212461 0.892567
vt 0.182461 0.892567
vt 0.212461 0.937567
vt 0.212461 0.887567
vt 0.212461 0.872567
vt 0.212461 0.937567
vt 0.227461 0.892567
vt 0.227461 0.892567
vt 0.227461 0.937567
vt 0.227461 0.887567
vt 0.227461 0.937567
vt 0.227461 0.872567
vt 0.197461 0.892567
vt 0.242461 0.892567
vt 0.182461 0.892567
vt 0.242461 0.892567
vt 0.197461 0.937567
vt 0.242461 0.937567
vt 0.242461 0.887567
vt 0.242461 0.937567
vt 0.182461 0.937567
vt 0.242461 0.872567
vt 0.212461 0.877567
vt 0.197461 0.877567
vt 0.212461 0.877567
vt 0.182461 0.877567
vt 0.227461 0.877567
vt 0.227461 0.877567
vt 0.242461 0.877567
vt 0.197461 0.877567
vt 0.242461 0.877567
vt 0.182461 0.877567
vt 0.212461 0.847567
vt 0.197461 0.847567
vt 0.182461 0.847567
vt 0.212461 0.847567
vt 0.227461 0.847567
vt 0.227461 0.847567
vt 0.197461 0.847567
vt 0.242461 0.847567
vt 0.182461 0.847567
vt 0.242461 0.847567
vt 0.212461 0.817567
vt 0.197461 0.817567
vt 0.114273 0.901847
vt 0.114273 0.807377
vt 0.114273 0.901847
vt 0.182461 0.817567
vt 0.212461 0.817567
vt 0.114273 0.858806
vt 0.227461 0.817567
vt 0.114273 0.850418
vt 0.227461 0.817567
vt 0.114273 0.850418
vt 0.197461 0.817567
vt 0.114273 0.798990
vt 0.242461 0.817567
vt 0.114273 0.807377
vt 0.182461 0.817567
vt 0.242461 0.817567
vt 0.114273 0.858806
vt 0.114273 0.798990
vt 0.075702 0.901847
vt 0.011416 0.901847
vt 0.011416 0.807377
vt 0.011416 0.901847
vt 0.024273 0.901847
vt 0.011416 0.858806
vt 0.075702 0.850418
vt 0.011416 0.850418
vt 0.024273 0.850418
vt 0.011416 0.850418
vt 0.011416 0.798990
vt 0.075702 0.798990
vt 0.011416 0.807377
vt 0.024273 0.798990
vt 0.011416 0.858806
vt 0.011416 0.798990
s 0
g Cube.002_Material
usemtl Material
f 1/1/1 2/4/1 4/11/1 3/8/1
f 3/9/2 4/12/2 8/22/2 7/19/2
f 8/21/2 11/27/2 29/66/2 25/51/2
f 5/15/3 6/18/3 2/5/3 1/2/3
f 3/10/4 7/20/4 5/16/4 1/3/4
f 4/13/1 2/6/1 9/24/1 10/26/1
f 9/23/3 12/28/3 16/34/3 13/30/3
f 2/7/3 6/17/3 12/28/3 9/23/3
f 8/21/2 4/14/2 10/25/2 11/27/2
f 15/33/2 19/39/2 33/74/2 31/70/2
f 24/49/3 20/40/3 34/77/3 36/82/3
f 11/27/2 10/25/2 14/32/2 15/33/2
f 12/28/3 6/17/3 28/61/3 30/68/3
f 10/26/1 9/24/1 13/29/1 14/31/1
f 18/37/1 17/35/1 21/41/1 22/44/1
f 14/31/1 13/29/1 17/35/1 18/37/1
f 13/30/3 16/34/3 20/40/3 17/36/3
f 15/33/2 14/32/2 18/38/2 19/39/2
f 23/47/5 22/45/5 21/42/5 24/50/5
f 17/36/3 20/40/3 24/49/3 21/43/3
f 19/39/2 18/38/2 22/46/2 23/48/2
f 23/47/5 24/50/5 36/81/5 35/80/5
f 26/55/6 25/52/6 28/62/6 27/58/6
f 28/63/6 25/53/6 29/65/6 30/67/6
f 32/71/6 31/69/6 33/73/6 34/76/6
f 30/67/6 29/65/6 31/69/6 32/71/6
f 33/74/2 35/79/2 39/89/2 37/84/2
f 19/39/2 23/48/2 35/79/2 33/74/2
f 6/18/3 5/15/3 27/59/3 28/64/3
f 20/40/3 16/34/3 32/72/3 34/77/3
f 7/19/2 8/22/2 25/54/2 26/56/2
f 11/27/2 15/33/2 31/70/2 29/66/2
f 5/16/4 7/20/4 26/57/4 27/60/4
f 16/34/3 12/28/3 30/68/3 32/72/3
f 37/84/2 39/89/2 43/95/2 41/93/2
f 35/80/5 36/81/5 40/91/5 39/90/5
f 36/82/3 34/77/3 38/87/3 40/92/3
f 34/78/4 33/75/4 37/83/4 38/86/4
f 44/97/3 42/94/3 46/102/3 48/106/3
f 39/90/5 40/91/5 44/98/5 43/96/5
f 40/92/3 38/87/3 42/94/3 44/97/3
f 42/94/3 38/87/3 50/111/3 52/114/3
f 46/101/6 45/99/6 47/103/6 48/107/6
f 45/99/6 46/101/6 54/118/6 53/116/6
f 41/93/2 43/95/2 47/104/2 45/100/2
f 43/96/5 44/98/5 48/108/5 47/105/5
f 52/114/3 50/111/3 56/122/3 58/124/3
f 54/117/3 52/114/3 58/124/3 60/128/3
f 37/84/2 41/93/2 51/113/2 49/109/2
f 41/93/2 45/100/2 53/115/2 51/113/2
f 38/88/1 37/85/1 49/110/1 50/112/1
f 46/102/3 42/94/3 52/114/3 54/117/3
f 55/119/2 57/123/2 63/137/2 61/129/2
f 59/125/6 60/127/6 66/145/6 65/141/6
f 51/113/2 53/115/2 59/126/2 57/123/2
f 53/116/6 54/118/6 60/127/6 59/125/6
f 49/109/2 51/113/2 57/123/2 55/119/2
f 50/112/1 49/110/1 55/120/1 56/121/1
f 63/138/2 65/142/2 71/159/2 69/156/2
f 64/140/3 62/133/3 68/152/3 70/158/3
f 56/121/1 55/120/1 61/130/1 62/134/1
f 60/128/3 58/124/3 64/139/3 66/146/3
f 58/124/3 56/122/3 62/135/3 64/139/3
f 57/123/2 59/126/2 65/143/2 63/137/2
f 68/153/4 67/149/4 69/155/4 70/157/4
f 70/157/4 69/155/4 71/160/4 72/162/4
f 65/144/6 66/147/6 72/163/6 71/161/6
f 61/131/2 63/138/2 69/156/2 67/150/2
f 62/136/1 61/132/1 67/151/1 68/154/1
f 66/148/3 64/140/3 70/158/3 72/164/3
g Cube_Cube
v -1.000000 -3.000000 0.553671
v -1.000000 -2.000000 0.553671
v -1.000000 -3.000000 0.433671
v -1.000000 -2.000000 0.433671
v -0.400000 -3.000000 0.553671
v -0.400000 -2.000000 0.553671
v -0.400000 -3.000000 0.433671
v -0.400000 -2.000000 0.433671
v 1.400000 -2.000000 0.433671
v 1.400000 -3.000000 0.433671
v 1.400000 -3.000000 0.553671
v 1.400000 -2.000000 0.553671
v 2.000000 -2.000000 0.433671
v 2.000000 -3.000000 0.433671
v 2.000000 -3.000000 0.553671
v 2.000000 -2.000000 0.553671
v -1.000000 0.000000 0.553671
v -1.000000 0.000000 0.433671
v -0.400000 0.000000 0.433671
v -0.400000 0.000000 0.553671
v 1.400000 0.000000 0.433671
v 1.400000 0.000000 0.553671
v 2.000000 0.000000 0.433671
v 2.000000 0.000000 0.553671
v -1.000000 0.600000 0.553671
v -1.000000 0.600000 0.433671
v -0.400000 0.600000 0.433671
v -0.400000 0.600000 0.553671
v 1.400000 0.600000 0.433671
v 1.400000 0.600000 0.553671
v 2.000000 0.600000 0.433671
v 2.000000 0.600000 0.553671
v -1.000000 3.400000 0.553671
v -1.000000 3.400000 0.433671
v -0.400000 3.400000 0.433671
v -0.400000 3.400000 0.553671
v 1.400000 3.400000 0.433671
v 1.400000 3.400000 0.553671
v 2.000000 3.400000 0.433671
v 2.000000 3.400000 0.553671
v -1.000000 4.000000 0.553671
v -1.000000 4.000000 0.433671
v -0.400000 4.000000 0.433671
v -0.400000 4.000000 0.553671
v 1.400000 4.000000 0.433671
v 1.400000 4.000000 0.553671
v 2.000000 4.000000 0.433671
v 2.000000 4.000000 0.553671
v -1.000000 -2.000000 0.313671
v -1.000000 -3.000000 0.313671
v -0.400000 -3.000000 0.313671
v -0.400000 -2.000000 0.313671
v 1.400000 -2.000000 0.313671
v 1.400000 -3.000000 0.313671
v 2.000000 -2.000000 0.313671
v 2.000000 0.000000 0.313671
v 2.000000 -3.000000 0.313671
v -1.000000 0.000000 0.313671
v -0.400000 0.000000 0.313671
v 1.400000 0.000000 0.313671
v -1.000000 0.600000 0.313671
v -0.400000 0.600000 0.313671
v -1.000000 3.400000 0.313671
v 1.400000 0.600000 0.313671
v 2.000000 0.600000 0.313671
v -0.400000 3.400000 0.313671
v 1.400000 4.000000 0.313671
v 1.400000 3.400000 0.313671
v -0.400000 4.000000 0.313671
v 2.000000 3.400000 0.313671
v -1.000000 4.000000 0.313671
v 2.000000 4.000000 0.313671
v -1.000000 -3.000000 0.673671
v -1.000000 -2.000000 0.673671
v 2.000000 0.000000 0.673671
v 2.000000 -2.000000 0.673671
v -0.400000 -2.000000 0.673671
v -0.400000 -3.000000 0.673671
v 1.400000 -2.000000 0.673671
v 1.400000 -3.000000 0.673671
v 2.000000 -3.000000 0.673671
v -0.400000 0.600000 0.673671
v -0.400000 0.000000 0.673671
v -1.000000 0.000000 0.673671
v 1.400000 0.000000 0.673671
v 1.400000 0.600000 0.673671
v -1.000000 0.600000 0.673671
v -1.000000 3.400000 0.673671
v 2.000000 0.600000 0.673671
v -0.400000 3.400000 0.673671
v 1.400000 3.400000 0.673671
v 2.000000 3.400000 0.673671
v -0.400000 4.000000 0.673671
v -1.000000 4.000000 0.673671
v 1.400000 4.000000 0.673671
v 2.000000 4.000000 0.673671
vn -1.0000 -0.0000 -0.0000
vn -0.0000 1.0000 -0.0000
vn -0.0000 -1.0000 -0.0000
vn 1.0000 -0.0000 -0.0000
vn -0.0000 -0.0000 -1.0000
vn -0.0000 -0.0000 1.0000
vt 0.125000 0.750000
vt 0.375000 0.000000
vt 0.625000 0.000000
vt 0.375000 0.250000
vt 0.125000 0.500000
vt 0.625000 0.250000
vt 0.375000 0.750000
vt -0.062583 -1.612963
vt 0.472380 0.183333
vt 0.543611 -0.962963
vt 0.375000 0.500000
vt -0.062583 -1.612963
vt 0.462204 -0.762963
vt 0.556694 -0.209259
vt 1.062583 -1.612963
vt 0.556694 1.090741
vt 0.462204 -0.762963
vt 0.375000 0.500000
vt 0.375000 0.750000
vt 1.062583 -1.612963
vt 0.472380 0.816667
vt 0.543611 -0.962963
vt 0.625000 0.500000
vt 0.375000 0.500000
vt 0.375000 0.750000
vt 0.625000 0.750000
vt 0.625000 0.000000
vt 0.625000 0.250000
vt -0.062583 -0.020370
vt 0.462204 0.200000
vt 0.556694 -0.209259
vt 0.472380 0.183333
vt -0.062583 -0.020370
vt 0.543611 0.148148
vt 1.062583 -0.020370
vt 0.556694 1.090741
vt 0.462204 0.200000
vt 0.472380 0.816667
vt 1.062583 -0.020370
vt 0.543611 0.148148
vt 0.625000 0.500000
vt 0.625000 0.750000
vt 0.625000 0.000000
vt 0.625000 0.250000
vt 0.462204 0.488889
vt -0.062583 0.457407
vt 0.556694 -0.209259
vt 0.472380 0.183333
vt -0.062583 0.457407
vt 0.543611 0.481481
vt 0.462204 0.488889
vt 1.062583 0.457407
vt 0.556694 1.090741
vt 0.472380 0.816667
vt 1.062583 0.457407
vt 0.543611 0.481481
vt 0.625000 0.500000
vt 0.625000 0.750000
vt 0.625000 0.000000
vt 0.625000 0.250000
vt 0.462204 1.837037
vt 0.556694 -0.209259
vt -0.062583 2.687037
vt -0.062583 2.687037
vt 0.472380 0.183333
vt 0.543611 2.037037
vt 0.462204 1.837037
vt 0.556694 1.090741
vt 1.062583 2.687037
vt 1.062583 2.687037
vt 0.472380 0.816667
vt 0.543611 2.037037
vt 0.625000 0.500000
vt 0.625000 0.750000
vt 0.625000 0.000000
vt 0.875000 0.750000
vt 0.875000 0.500000
vt 0.625000 0.250000
vt 0.625000 0.500000
vt 0.625000 0.750000
vt 0.625000 0.500000
vt 0.625000 0.750000
vt 0.625000 0.500000
vt 0.625000 0.750000
vt 0.625000 0.250000
vt 0.833661 -0.301429
vt -0.175972 -1.012963
vt 0.375000 0.250000
vt 1.119625 -0.301429
vt 0.125000 0.500000
vt 1.119625 0.019142
vt 0.375000 0.500000
vt 0.094417 -1.012963
vt 0.833661 0.019142
vt 0.537796 -0.762963
vt 0.443306 -0.209259
vt 0.833661 0.980857
vt 0.905584 -1.012963
vt 0.443306 1.090741
vt 0.537796 -0.762963
vt 1.119625 0.980857
vt 0.375000 0.500000
vt 0.833661 1.301428
vt 1.175972 -1.012963
vt 0.625000 0.500000
vt 0.625000 0.500000
vt 1.175972 0.135185
vt 0.261732 1.301429
vt 1.119625 1.301429
vt 0.375000 0.500000
vt 0.625000 0.250000
vt -0.175972 0.135185
vt 0.261732 -0.301429
vt 0.094417 0.135185
vt 0.261732 0.019143
vt 0.537796 0.200000
vt 0.443306 -0.209259
vt 0.905584 0.135185
vt 0.261732 0.980857
vt 0.443306 1.090741
vt 0.537796 0.200000
vt 0.625000 0.250000
vt 0.090153 -0.301429
vt -0.175972 0.479630
vt 0.537796 0.488889
vt 0.090153 0.019143
vt 0.094417 0.479630
vt 0.443306 -0.209259
vt -0.175972 2.087037
vt -0.073046 -0.301429
vt 0.625000 0.250000
vt 0.537796 0.488889
vt 0.905584 0.479630
vt 0.090154 0.980857
vt 0.443306 1.090741
vt 1.175972 0.479630
vt 0.090154 1.301429
vt 0.625000 0.500000
vt 0.537796 1.837037
vt 0.443306 -0.209259
vt 0.094417 2.087037
vt -0.073046 0.019143
vt -0.244625 0.980857
vt 0.625000 0.500000
vt 0.537796 1.837037
vt 0.443306 1.090741
vt 0.905584 2.087037
vt -0.073046 0.980857
vt 0.625000 0.500000
vt -0.244625 0.019143
vt 1.175972 2.087037
vt -0.073046 1.301429
vt 0.625000 0.500000
vt 0.875000 0.500000
vt -0.244625 -0.301429
vt 0.625000 0.250000
vt -0.244625 1.301429
vt 0.625000 0.500000
vt 0.125000 0.750000
vt 0.375000 0.000000
vt 0.694625 -0.301429
vt 0.625000 0.000000
vt 0.408661 -0.301429
vt -0.175972 -1.012963
vt 1.175972 0.135185
vt 0.261732 1.301429
vt 0.625000 0.750000
vt 0.408661 1.301428
vt 1.175972 -1.012963
vt 0.625000 0.750000
vt 0.527620 0.183333
vt 0.456389 -0.962963
vt 0.408661 0.019142
vt 0.094417 -1.012963
vt 0.375000 0.750000
vt 0.694625 0.019142
vt 0.527620 0.816667
vt 0.408661 0.980857
vt 0.905584 -1.012963
vt 0.456389 -0.962963
vt 0.694625 0.980857
vt 0.375000 0.750000
vt 0.694625 1.301429
vt 0.375000 0.750000
vt 0.527620 0.183333
vt 0.090153 0.019143
vt 0.094417 0.479630
vt 0.456389 0.481481
vt 0.527620 0.183333
vt 0.456389 0.148148
vt 0.094417 0.135185
vt 0.261732 0.019143
vt 0.625000 0.000000
vt -0.175972 0.135185
vt 0.261732 -0.301429
vt 0.527620 0.816667
vt 0.905584 0.135185
vt 0.261732 0.980857
vt 0.456389 0.148148
vt 0.527620 0.816667
vt 0.090154 0.980857
vt 0.905584 0.479630
vt 0.456389 0.481481
vt 0.625000 0.000000
vt 0.090153 -0.301429
vt -0.175972 0.479630
vt 0.625000 0.000000
vt -0.175972 2.087037
vt -0.073046 -0.301429
vt 0.090154 1.301429
vt 1.175972 0.479630
vt 0.625000 0.750000
vt 0.094417 2.087037
vt -0.073046 0.019143
vt 0.527620 0.183333
vt 0.456389 2.037037
vt 0.905584 2.087037
vt -0.073046 0.980857
vt 0.527620 0.816667
vt 0.456389 2.037037
vt 1.175972 2.087037
vt -0.073046 1.301429
vt 0.625000 0.750000
vt -0.244625 0.019143
vt 0.625000 0.750000
vt 0.625000 0.000000
vt -0.244625 -0.301429
vt 0.875000 0.750000
vt -0.244625 0.980857
vt 0.625000 0.750000
vt -0.244625 1.301429
vt 0.625000 0.750000
s 0
g Cube_Wood
usemtl Wood
f 73/166/7 74/167/7 76/170/7 75/168/7
f 101/215/7 109/231/7 140/309/7 136/296/7
f 102/218/8 100/212/8 154/349/8 158/364/8
f 113/239/7 105/223/7 160/371/7 166/390/7
f 75/169/9 79/175/9 77/171/9 73/165/9
f 82/182/9 79/175/9 123/256/9 126/266/9
f 105/223/7 97/207/7 159/368/7 160/371/7
f 77/171/9 79/175/9 82/182/9 83/183/9
f 88/190/10 85/187/10 95/205/10 96/206/10
f 90/192/7 98/208/7 133/286/7 130/275/7
f 86/188/10 85/187/10 88/190/10 87/189/10
f 76/170/7 90/192/7 130/275/7 121/249/7
f 92/196/9 94/202/9 157/360/9 155/353/9
f 83/183/9 82/182/9 86/188/9 87/189/9
f 75/168/7 76/170/7 121/249/7 122/252/7
f 73/165/9 77/171/9 150/339/9 145/323/9
f 120/248/8 118/246/8 167/394/8 168/396/8
f 114/241/8 115/243/8 141/313/8 143/318/8
f 81/179/11 80/176/11 91/193/11 93/199/11
f 78/172/12 84/184/12 94/203/12 92/197/12
f 84/185/8 78/173/8 149/335/8 151/341/8
f 76/170/7 74/167/7 89/191/7 90/192/7
f 104/222/10 103/221/10 111/237/10 112/238/10
f 98/208/7 106/224/7 135/295/7 133/286/7
f 98/208/7 97/207/7 105/223/7 106/224/7
f 97/207/7 89/191/7 156/357/7 159/368/7
f 107/225/10 99/209/10 134/289/10 138/303/10
f 90/192/7 89/191/7 97/207/7 98/208/7
f 115/243/8 117/245/8 139/308/8 141/313/8
f 96/206/10 95/205/10 103/221/10 104/222/10
f 103/221/10 95/205/10 128/270/10 137/302/10
f 106/224/7 105/223/7 113/239/7 114/242/7
f 109/232/9 107/226/9 138/304/9 140/310/9
f 100/213/12 102/219/12 110/234/12 108/228/12
f 89/191/7 74/167/7 146/326/7 156/357/7
f 95/205/10 85/187/10 127/269/10 128/270/10
f 77/171/9 83/183/9 152/346/9 150/339/9
f 101/216/11 99/210/11 107/227/11 109/233/11
f 115/243/8 114/241/8 113/240/8 116/244/8
f 117/245/8 118/246/8 120/248/8 119/247/8
f 115/243/8 116/244/8 118/246/8 117/245/8
f 112/238/10 111/237/10 119/247/10 120/248/10
f 78/174/10 92/198/10 155/354/10 149/336/10
f 74/167/7 73/166/7 145/324/7 146/326/7
f 119/247/10 111/237/10 142/317/10 144/322/10
f 87/189/10 88/190/10 148/334/10 153/348/10
f 122/253/11 121/250/11 124/258/11 123/255/11
f 124/257/11 121/251/11 130/276/11 131/278/11
f 123/255/11 124/258/11 125/261/11 126/265/11
f 126/265/11 125/261/11 127/267/11 129/273/11
f 131/279/11 130/277/11 133/287/11 134/290/11
f 127/268/11 125/262/11 132/282/11 128/271/11
f 137/300/11 136/297/11 140/311/11 142/315/11
f 132/283/11 131/279/11 134/290/11 136/298/11
f 128/272/11 132/283/11 136/298/11 137/301/11
f 142/316/11 140/312/11 139/307/11 144/321/11
f 140/312/11 138/306/11 141/314/11 139/307/11
f 134/291/11 133/288/11 135/293/11 138/305/11
f 138/306/11 135/294/11 143/319/11 141/314/11
f 117/245/8 119/247/8 144/322/8 139/308/8
f 86/188/9 82/182/9 126/266/9 129/274/9
f 79/175/9 75/169/9 122/254/9 123/256/9
f 91/194/10 80/177/10 124/259/10 131/280/10
f 80/178/8 81/180/8 125/263/8 124/260/8
f 111/237/10 103/221/10 137/302/10 142/317/10
f 93/200/9 91/195/9 131/281/9 132/284/9
f 81/181/7 93/201/7 132/285/7 125/264/7
f 85/187/10 86/188/10 129/274/10 127/269/10
f 106/224/7 114/242/7 143/320/7 135/295/7
f 99/211/8 101/217/8 136/299/8 134/292/8
f 149/337/12 150/340/12 152/345/12 151/342/12
f 150/340/12 149/337/12 146/327/12 145/325/12
f 146/328/12 149/338/12 155/355/12 156/358/12
f 151/342/12 152/345/12 153/347/12 148/332/12
f 156/359/12 155/356/12 154/350/12 159/369/12
f 155/356/12 157/362/12 158/365/12 154/350/12
f 151/343/12 148/333/12 147/329/12 157/361/12
f 157/362/12 147/330/12 161/374/12 158/365/12
f 159/370/12 154/351/12 162/377/12 160/372/12
f 158/366/12 161/375/12 164/385/12 163/381/12
f 162/378/12 163/382/12 167/393/12 165/388/12
f 160/373/12 162/378/12 165/388/12 166/391/12
f 163/382/12 164/386/12 168/395/12 167/393/12
f 83/183/9 87/189/9 153/348/9 152/346/9
f 116/244/8 113/240/8 166/392/8 165/389/8
f 96/206/10 104/222/10 161/376/10 147/331/10
f 104/222/10 112/238/10 164/387/10 161/376/10
f 108/229/9 110/235/9 163/383/9 162/379/9
f 94/204/7 84/186/7 151/344/7 157/363/7
f 110/236/7 102/220/7 158/367/7 163/384/7
f 118/246/8 116/244/8 165/389/8 167/394/8
f 100/214/10 108/230/10 162/380/10 154/352/10
f 112/238/10 120/248/10 168/396/10 164/387/10
f 88/190/10 96/206/10 147/331/10 148/334/10
