# Blender 3.5.1
# www.blender.org
mtllib BuildingWallWindow2Window.mtl
o Cube.002
v -3.000000 -3.000000 1.000000
v -3.000000 -1.000000 1.000000
v -3.000000 -3.000000 -0.000000
v -3.000000 -1.000000 0.000000
v -2.000000 -3.000000 1.000000
v -2.000000 -1.000000 1.000000
v -2.000000 -3.000000 0.000000
v -2.000000 -1.000000 0.000000
v -3.000000 1.000000 1.000000
v -3.000000 1.000000 0.000000
v -2.000000 1.000000 0.000000
v -2.000000 1.000000 1.000000
v -3.000000 3.000000 1.000000
v -3.000000 3.000000 0.000000
v -2.000000 3.000000 0.000000
v -2.000000 3.000000 1.000000
v -3.000000 5.000000 1.000000
v -3.000000 5.000000 0.000000
v -2.000000 5.000000 0.000000
v -2.000000 5.000000 1.000000
v -3.000000 7.000000 1.000000
v -3.000000 7.000000 0.000000
v -2.000000 7.000000 0.000000
v -2.000000 7.000000 1.000000
v -3.000000 8.000000 1.000000
v -3.000000 8.000000 0.000000
v -2.000000 8.000000 0.000000
v -2.000000 8.000000 1.000000
v -3.000000 11.000000 1.000000
v -3.000000 11.000000 0.000000
v -2.000000 11.000000 0.000000
v -2.000000 11.000000 1.000000
v -3.000000 12.000000 1.000000
v -3.000000 12.000000 0.000000
v -2.000000 12.000000 0.000000
v -2.000000 12.000000 1.000000
v -1.000000 -1.000000 0.000000
v -1.000000 -3.000000 0.000000
v -1.000000 -3.000000 1.000000
v -1.000000 -1.000000 1.000000
v -1.000000 1.000000 0.000000
v -1.000000 1.000000 1.000000
v -1.000000 3.000000 0.000000
v -1.000000 3.000000 1.000000
v -1.000000 5.000000 0.000000
v -1.000000 5.000000 1.000000
v -1.000000 7.000000 0.000000
v -1.000000 7.000000 1.000000
v -1.000000 8.000000 0.000000
v -1.000000 8.000000 1.000000
v -1.000000 11.000000 0.000000
v -1.000000 11.000000 1.000000
v -1.000000 12.000000 0.000000
v -1.000000 12.000000 1.000000
v 2.000000 -1.000000 0.000000
v 2.000000 -3.000000 0.000000
v 2.000000 -3.000000 1.000000
v 2.000000 -1.000000 1.000000
v 2.000000 1.000000 0.000000
v 2.000000 1.000000 1.000000
v 2.000000 3.000000 0.000000
v 2.000000 3.000000 1.000000
v 2.000000 5.000000 0.000000
v 2.000000 5.000000 1.000000
v 2.000000 7.000000 0.000000
v 2.000000 7.000000 1.000000
v 2.000000 8.000000 0.000000
v 2.000000 8.000000 1.000000
v 2.000000 11.000000 0.000000
v 2.000000 11.000000 1.000000
v 2.000000 12.000000 0.000000
v 2.000000 12.000000 1.000000
v 3.000000 -1.000000 0.000000
v 3.000000 -3.000000 0.000000
v 3.000000 -3.000000 1.000000
v 3.000000 -1.000000 1.000000
v 3.000000 1.000000 0.000000
v 3.000000 1.000000 1.000000
v 3.000000 3.000000 0.000000
v 3.000000 3.000000 1.000000
v 3.000000 5.000000 0.000000
v 3.000000 5.000000 1.000000
v 3.000000 7.000000 0.000000
v 3.000000 7.000000 1.000000
v 3.000000 8.000000 0.000000
v 3.000000 8.000000 1.000000
v 3.000000 11.000000 0.000000
v 3.000000 11.000000 1.000000
v 3.000000 12.000000 0.000000
v 3.000000 12.000000 1.000000
v 4.000000 -1.000000 0.000000
v 4.000000 -3.000000 0.000000
v 4.000000 -3.000000 1.000000
v 4.000000 -1.000000 1.000000
v 4.000000 1.000000 0.000000
v 4.000000 1.000000 1.000000
v 4.000000 3.000000 0.000000
v 4.000000 3.000000 1.000000
v 4.000000 5.000000 0.000000
v 4.000000 5.000000 1.000000
v 4.000000 7.000000 0.000000
v 4.000000 7.000000 1.000000
v 4.000000 8.000000 0.000000
v 4.000000 8.000000 1.000000
v 4.000000 11.000000 0.000000
v 4.000000 11.000000 1.000000
v 4.000000 12.000000 0.000000
v 4.000000 12.000000 1.000000
v 2.000000 8.000000 1.000000
v 3.000000 8.000000 1.000000
v 2.000000 1.000000 0.000000
v 2.000000 1.000000 1.000000
v 2.000000 8.000000 0.000000
v 3.000000 1.000000 0.000000
v 3.000000 1.000000 1.000000
v 3.000000 8.000000 0.000000
v 4.000000 1.000000 0.000000
v 4.000000 1.000000 1.000000
v 4.000000 8.000000 0.000000
v 4.000000 8.000000 1.000000
vn -1.0000 -0.0000 -0.0000
vn -0.0000 -0.0000 -1.0000
vn -0.0000 -0.0000 1.0000
vn -0.0000 -1.0000 -0.0000
vn -0.0000 1.0000 -0.0000
vn 1.0000 -0.0000 -0.0000
vt 0.030022 0.888334
vt 0.030022 0.974048
vt 0.035905 0.974048
vt 0.087165 0.888334
vt 0.087165 0.974048
vt 0.185200 0.770503
vt 0.136000 0.770503
vt 0.030022 0.859762
vt 0.030022 0.974048
vt 0.064476 0.974048
vt 0.087165 0.859762
vt 0.087165 0.974048
vt 0.136000 0.770503
vt 0.200585 0.770503
vt 0.030022 0.945477
vt 0.035905 0.945477
vt 0.087165 0.945477
vt 0.151384 0.770503
vt 0.064476 0.945477
vt 0.030022 0.945477
vt 0.151384 0.770503
vt 0.087165 0.945477
vt 0.185200 0.801272
vt 0.136000 0.801272
vt 0.200585 0.801272
vt 0.136000 0.801272
vt 0.151384 0.801272
vt 0.151384 0.801272
vt 0.136000 0.832042
vt 0.185200 0.832042
vt 0.136000 0.832042
vt 0.200585 0.832042
vt 0.151384 0.832042
vt 0.151384 0.832042
vt 0.185200 0.862811
vt 0.136000 0.862811
vt 0.136000 0.862811
vt 0.200585 0.862811
vt 0.151384 0.862811
vt 0.151384 0.862811
vt 0.185200 0.893580
vt 0.136000 0.893580
vt 0.200585 0.893580
vt 0.136000 0.893580
vt 0.151384 0.893580
vt 0.151384 0.893580
vt 0.136000 0.908965
vt 0.185200 0.908965
vt 0.136000 0.908965
vt 0.200585 0.908965
vt 0.151384 0.908965
vt 0.151384 0.908965
vt 0.185200 0.955119
vt 0.136000 0.955119
vt 0.200585 0.955119
vt 0.136000 0.955119
vt 0.151384 0.955119
vt 0.151384 0.955119
vt 0.136000 0.870351
vt 0.185200 0.970503
vt 0.136000 0.970503
vt 0.136000 0.885736
vt 0.200585 0.970503
vt 0.136000 0.970503
vt 0.151384 0.885736
vt 0.151384 0.970503
vt 0.151384 0.970503
vt 0.151384 0.870351
vt 0.166769 0.770503
vt 0.087165 0.916905
vt 0.030022 0.916905
vt 0.064476 0.916905
vt 0.035905 0.916905
vt 0.030022 0.916905
vt 0.166769 0.770503
vt 0.087165 0.916905
vt 0.200585 0.801272
vt 0.166769 0.801272
vt 0.166769 0.885736
vt 0.185200 0.801272
vt 0.166769 0.870351
vt 0.166769 0.801272
vt 0.200585 0.832042
vt 0.166769 0.832042
vt 0.166769 0.885736
vt 0.185200 0.832042
vt 0.166769 0.870351
vt 0.166769 0.832042
vt 0.166769 0.862811
vt 0.166769 0.862811
vt 0.166769 0.893580
vt 0.166769 0.893580
vt 0.200585 0.908965
vt 0.166769 0.885736
vt 0.166769 0.908965
vt 0.185200 0.908965
vt 0.166769 0.870351
vt 0.166769 0.908965
vt 0.166769 0.885736
vt 0.200585 0.955119
vt 0.166769 0.955119
vt 0.166769 0.870351
vt 0.185200 0.955119
vt 0.166769 0.955119
vt 0.166769 0.885736
vt 0.166769 0.970503
vt 0.166769 0.870351
vt 0.166769 0.970503
vt 0.212923 0.770503
vt 0.087165 0.831191
vt 0.030022 0.831191
vt 0.064476 0.831191
vt 0.035905 0.831191
vt 0.030022 0.831191
vt 0.212923 0.770503
vt 0.087165 0.831191
vt 0.212923 0.801272
vt 0.212923 0.885736
vt 0.212923 0.801272
vt 0.212923 0.870351
vt 0.212923 0.885736
vt 0.212923 0.832042
vt 0.200585 0.832042
vt 0.212923 0.870351
vt 0.185200 0.832042
vt 0.212923 0.832042
vt 0.212923 0.862811
vt 0.212923 0.862811
vt 0.212923 0.893580
vt 0.212923 0.893580
vt 0.212923 0.885736
vt 0.212923 0.908965
vt 0.212923 0.870351
vt 0.212923 0.908965
vt 0.212923 0.885736
vt 0.212923 0.955119
vt 0.200585 0.955119
vt 0.212923 0.870351
vt 0.212923 0.955119
vt 0.185200 0.955119
vt 0.212923 0.885736
vt 0.212923 0.970503
vt 0.212923 0.970503
vt 0.212923 0.870351
vt 0.087165 0.802619
vt 0.228307 0.770503
vt 0.030022 0.802619
vt 0.064476 0.802619
vt 0.035905 0.802619
vt 0.030022 0.802619
vt 0.228307 0.770503
vt 0.087165 0.802619
vt 0.228307 0.885736
vt 0.228307 0.801272
vt 0.228307 0.801272
vt 0.228307 0.870351
vt 0.228307 0.832042
vt 0.228307 0.832042
vt 0.228307 0.862811
vt 0.228307 0.862811
vt 0.228307 0.893580
vt 0.228307 0.893580
vt 0.228307 0.885736
vt 0.228307 0.908965
vt 0.228307 0.870351
vt 0.228307 0.908965
vt 0.228307 0.955119
vt 0.228307 0.955119
vt 0.228307 0.885736
vt 0.228307 0.970503
vt 0.228307 0.870351
vt 0.228307 0.970503
vt 0.087165 0.774048
vt 0.087165 0.859762
vt 0.200585 0.770503
vt 0.243692 0.770503
vt 0.064476 0.774048
vt 0.030022 0.774048
vt 0.030022 0.859762
vt 0.035905 0.774048
vt 0.030022 0.888334
vt 0.030022 0.774048
vt 0.243692 0.770503
vt 0.087165 0.888334
vt 0.185200 0.770503
vt 0.087165 0.774048
vt 0.200585 0.801272
vt 0.243692 0.885736
vt 0.243692 0.801272
vt 0.243692 0.801272
vt 0.185200 0.801272
vt 0.243692 0.870351
vt 0.200585 0.832042
vt 0.243692 0.832042
vt 0.185200 0.832042
vt 0.243692 0.832042
vt 0.200585 0.862811
vt 0.243692 0.862811
vt 0.185200 0.862811
vt 0.243692 0.862811
vt 0.200585 0.893580
vt 0.243692 0.893580
vt 0.185200 0.893580
vt 0.243692 0.893580
vt 0.243692 0.908965
vt 0.243692 0.885736
vt 0.200585 0.908965
vt 0.243692 0.870351
vt 0.185200 0.908965
vt 0.243692 0.908965
vt 0.200585 0.955119
vt 0.243692 0.955119
vt 0.185200 0.955119
vt 0.243692 0.955119
vt 0.200585 0.970503
vt 0.243692 0.885736
vt 0.243692 0.970503
vt 0.185200 0.970503
vt 0.243692 0.870351
vt 0.243692 0.970503
vt 0.212923 0.870351
vt 0.212923 0.908965
vt 0.185200 0.908965
vt 0.228307 0.870351
vt 0.228307 0.908965
vt 0.212923 0.885736
vt 0.212923 0.801272
vt 0.200585 0.801272
vt 0.212923 0.870351
vt 0.185200 0.801272
vt 0.212923 0.801272
vt 0.212923 0.908965
vt 0.212923 0.885736
vt 0.200585 0.908965
vt 0.228307 0.885736
vt 0.228307 0.801272
vt 0.228307 0.870351
vt 0.228307 0.801272
vt 0.228307 0.885736
vt 0.228307 0.908965
vt 0.200585 0.801272
vt 0.243692 0.885736
vt 0.243692 0.801272
vt 0.185200 0.801272
vt 0.243692 0.870351
vt 0.243692 0.801272
vt 0.200585 0.908965
vt 0.243692 0.885736
vt 0.243692 0.908965
vt 0.243692 0.908965
vt 0.185200 0.908965
vt 0.243692 0.870351
s 0
usemtl Material
f 1/1/1 2/4/1 4/11/1 3/8/1
f 3/9/2 4/12/2 8/22/2 7/20/2
f 8/21/2 11/27/2 41/78/2 37/69/2
f 5/15/3 6/17/3 2/5/3 1/2/3
f 3/10/4 7/19/4 5/16/4 1/3/4
f 8/21/2 4/13/2 10/26/2 11/27/2
f 11/27/2 15/33/2 43/84/2 41/78/2
f 6/17/3 5/15/3 39/74/3 40/76/3
f 4/14/1 2/6/1 9/23/1 10/25/1
f 2/7/3 6/18/3 12/28/3 9/24/3
f 13/29/3 16/34/3 20/40/3 17/36/3
f 10/25/1 9/23/1 13/30/1 14/32/1
f 9/24/3 12/28/3 16/34/3 13/29/3
f 11/27/2 10/26/2 14/31/2 15/33/2
f 19/39/2 18/37/2 22/44/2 23/45/2
f 15/33/2 14/31/2 18/37/2 19/39/2
f 27/51/2 31/57/2 51/101/2 49/95/2
f 14/32/1 13/30/1 17/35/1 18/38/1
f 5/16/4 7/19/4 38/72/4 39/73/4
f 7/20/2 8/22/2 37/70/2 38/71/2
f 18/38/1 17/35/1 21/41/1 22/43/1
f 17/36/3 20/40/3 24/46/3 21/42/3
f 25/47/3 28/52/3 32/58/3 29/54/3
f 22/43/1 21/41/1 25/48/1 26/50/1
f 21/42/3 24/46/3 28/52/3 25/47/3
f 23/45/2 22/44/2 26/49/2 27/51/2
f 36/67/3 32/58/3 52/104/3 54/108/3
f 27/51/2 26/49/2 30/56/2 31/57/2
f 15/33/2 19/39/2 45/89/2 43/84/2
f 26/50/1 25/48/1 29/53/1 30/55/1
f 35/65/5 34/62/5 33/59/5 36/68/5
f 30/55/1 29/53/1 33/60/1 34/63/1
f 29/54/3 32/58/3 36/67/3 33/61/3
f 31/57/2 30/56/2 34/64/2 35/66/2
f 45/89/2 47/91/2 65/129/2 63/127/2
f 42/80/6 41/77/6 43/83/6 44/86/6
f 42/82/3 40/75/3 58/115/3 60/119/3
f 37/69/2 41/78/2 59/117/2 55/109/2
f 43/84/2 45/89/2 63/127/2 61/122/2
f 52/102/4 51/99/4 69/135/4 70/138/4
f 41/79/5 42/81/5 60/120/5 59/118/5
f 50/96/6 49/93/6 51/100/6 52/103/6
f 20/40/3 16/34/3 44/88/3 46/90/3
f 35/65/5 36/68/5 54/107/5 53/105/5
f 16/34/3 12/28/3 42/82/3 44/88/3
f 12/28/3 6/18/3 40/75/3 42/82/3
f 23/45/2 27/51/2 49/95/2 47/91/2
f 19/39/2 23/45/2 47/91/2 45/89/2
f 32/58/3 28/52/3 50/98/3 52/104/3
f 28/52/3 24/46/3 48/92/3 50/98/3
f 31/57/2 35/66/2 53/106/2 51/101/2
f 24/46/3 20/40/3 46/90/3 48/92/3
f 69/136/2 87/167/2 116/240/2 113/232/2
f 67/131/5 68/133/5 86/165/5 85/163/5
f 60/119/3 58/115/3 76/151/3 78/155/3
f 66/130/3 64/128/3 82/160/3 84/162/3
f 72/143/3 70/139/3 88/168/3 90/172/3
f 55/109/2 59/117/2 77/154/2 73/146/2
f 44/87/4 43/85/4 61/121/4 62/124/4
f 53/105/5 54/107/5 72/144/5 71/141/5
f 38/71/2 37/70/2 55/110/2 56/111/2
f 48/92/3 46/90/3 64/128/3 66/130/3
f 51/101/2 53/106/2 71/142/2 69/136/2
f 39/73/4 38/72/4 56/112/4 57/113/4
f 49/94/5 50/97/5 68/133/5 67/131/5
f 54/108/3 52/104/3 70/139/3 72/143/3
f 47/91/2 49/95/2 67/132/2 65/129/2
f 40/76/3 39/74/3 57/114/3 58/116/3
f 50/98/3 48/92/3 66/130/3 68/134/3
f 46/90/3 44/88/3 62/126/3 64/128/3
f 75/149/4 74/148/4 92/177/4 93/180/4
f 83/161/2 85/164/2 103/205/2 101/202/2
f 74/147/2 73/145/2 91/173/2 92/178/2
f 106/214/3 88/168/3 110/225/3 120/250/3
f 85/163/5 86/165/5 104/208/5 103/206/5
f 78/155/3 76/151/3 94/183/3 96/190/3
f 56/111/2 55/110/2 73/145/2 74/147/2
f 65/129/2 67/132/2 85/164/2 83/161/2
f 57/113/4 56/112/4 74/148/4 75/149/4
f 68/134/3 66/130/3 84/162/3 86/166/3
f 64/128/3 62/126/3 80/158/3 82/160/3
f 97/193/6 98/195/6 118/244/6 117/241/6
f 61/122/2 63/127/2 81/159/2 79/157/2
f 58/116/3 57/114/3 75/150/3 76/152/3
f 71/141/5 72/144/5 90/171/5 89/169/5
f 59/118/5 60/120/5 78/156/5 77/153/5
f 69/136/2 71/142/2 89/170/2 87/167/2
f 63/127/2 65/129/2 83/161/2 81/159/2
f 92/179/6 91/174/6 94/184/6 93/181/6
f 94/185/6 91/175/6 95/187/6 96/191/6
f 98/195/6 97/193/6 99/197/6 100/199/6
f 102/203/6 101/201/6 103/207/6 104/209/6
f 100/199/6 99/197/6 101/201/6 102/203/6
f 106/213/6 105/211/6 107/215/6 108/218/6
f 86/166/3 84/162/3 102/204/3 104/210/3
f 82/160/3 80/158/3 98/196/3 100/200/3
f 105/211/6 106/213/6 120/251/6 119/247/6
f 79/157/2 81/159/2 99/198/2 97/194/2
f 76/152/3 75/150/3 93/182/3 94/186/3
f 89/169/5 90/171/5 108/219/5 107/216/5
f 77/153/5 78/156/5 96/192/5 95/188/5
f 87/167/2 89/170/2 107/217/2 105/212/2
f 81/159/2 83/161/2 101/202/2 99/198/2
f 73/146/2 77/154/2 95/189/2 91/176/2
f 90/172/3 88/168/3 106/214/3 108/220/3
f 84/162/3 82/160/3 100/200/3 102/204/3
f 112/229/4 111/226/4 114/235/4 115/237/4
f 115/237/4 114/235/4 117/242/4 118/245/4
f 109/221/4 113/233/4 116/239/4 110/224/4
f 110/224/4 116/239/4 119/248/4 120/252/4
f 88/168/3 70/139/3 109/222/3 110/225/3
f 79/157/2 97/194/2 117/243/2 114/236/2
f 61/122/2 79/157/2 114/236/2 111/227/2
f 98/196/3 80/158/3 115/238/3 118/246/3
f 87/167/2 105/212/2 119/249/2 116/240/2
f 70/140/1 69/137/1 113/234/1 109/223/1
f 62/125/1 61/123/1 111/228/1 112/230/1
f 80/158/3 62/126/3 112/231/3 115/238/3
