# Blender 3.5.1
# www.blender.org
mtllib WindowStage1.mtl
g Cube_Cube
v -1.000000 1.000000 0.600000
v -1.000000 3.000000 0.600000
v -1.000000 1.000000 0.400000
v -1.000000 3.000000 0.400000
v -0.900000 1.000000 0.600000
v -0.900000 3.000000 0.600000
v -0.900000 1.000000 0.400000
v -0.900000 3.000000 0.400000
v -1.000000 2.000000 0.600000
v -1.000000 2.000000 0.400000
v -0.900000 2.000000 0.400000
v -0.900000 2.000000 0.600000
v -1.000000 1.492081 0.400000
v -0.900000 1.492081 0.400000
v -0.900000 1.492081 0.600000
v -1.000000 1.492081 0.600000
v -1.000000 1.221545 0.400000
v -0.900000 1.221545 0.400000
v -0.900000 1.221545 0.600000
v -1.000000 1.221545 0.600000
v -1.000000 1.110773 0.400000
v -0.900000 1.110773 0.400000
v -0.900000 1.110773 0.600000
v -1.000000 1.110773 0.600000
v -1.000000 2.500000 0.600000
v -1.000000 2.500000 0.400000
v -0.900000 2.500000 0.400000
v -0.900000 2.500000 0.600000
v -1.000000 2.750000 0.600000
v -1.000000 2.750000 0.400000
v -0.900000 2.750000 0.400000
v -0.900000 2.750000 0.600000
v -1.000000 2.875000 0.600000
v -1.000000 2.875000 0.400000
v -0.900000 2.875000 0.400000
v -0.900000 2.875000 0.600000
v -0.700000 1.110773 0.400000
v -0.700000 1.000000 0.400000
v -0.700000 1.000000 0.600000
v -0.700000 3.000000 0.400000
v -0.700000 3.000000 0.600000
v -0.700000 1.110773 0.600000
v -0.700000 2.875000 0.400000
v -0.700000 2.875000 0.600000
v -0.600000 1.110773 0.400000
v -0.600000 1.000000 0.400000
v -0.600000 1.000000 0.600000
v -0.600000 3.000000 0.400000
v -0.600000 3.000000 0.600000
v -0.600000 1.110773 0.600000
v -0.600000 2.875000 0.400000
v -0.600000 2.875000 0.600000
v -0.400000 1.110773 0.400000
v -0.400000 1.000000 0.400000
v -0.400000 1.000000 0.600000
v -0.400000 3.000000 0.400000
v -0.400000 3.000000 0.600000
v -0.400000 1.110773 0.600000
v -0.400000 2.875000 0.400000
v -0.400000 2.875000 0.600000
v -0.300000 1.110773 0.400000
v -0.300000 1.000000 0.400000
v -0.300000 1.000000 0.600000
v -0.300000 3.000000 0.400000
v -0.300000 3.000000 0.600000
v -0.300000 1.110773 0.600000
v -0.300000 2.875000 0.400000
v -0.300000 2.875000 0.600000
v -0.100000 1.110773 0.400000
v -0.100000 1.000000 0.400000
v -0.100000 1.000000 0.600000
v -0.100000 3.000000 0.400000
v -0.100000 3.000000 0.600000
v -0.100000 1.110773 0.600000
v -0.100000 2.875000 0.400000
v -0.100000 2.875000 0.600000
v 0.000000 1.110773 0.400000
v 0.000000 1.000000 0.400000
v 0.000000 1.000000 0.600000
v 0.000000 3.000000 0.400000
v 0.000000 3.000000 0.600000
v 0.000000 1.110773 0.600000
v 0.000000 2.875000 0.400000
v 0.000000 2.875000 0.600000
v 0.200000 1.110773 0.400000
v 0.200000 1.000000 0.400000
v 0.200000 1.000000 0.600000
v 0.200000 3.000000 0.400000
v 0.200000 3.000000 0.600000
v 0.200000 1.110773 0.600000
v 0.200000 2.875000 0.400000
v 0.200000 2.875000 0.600000
v 0.300000 1.110773 0.400000
v 0.300000 1.000000 0.400000
v 0.300000 1.000000 0.600000
v 0.300000 3.000000 0.400000
v 0.300000 3.000000 0.600000
v 0.300000 1.110773 0.600000
v 0.300000 2.875000 0.400000
v 0.300000 2.875000 0.600000
v 0.400000 1.110773 0.400000
v 0.400000 1.000000 0.400000
v 0.400000 1.000000 0.600000
v 0.400000 3.000000 0.400000
v 0.400000 3.000000 0.600000
v 0.400000 1.110773 0.600000
v 0.400000 2.875000 0.400000
v 0.400000 2.875000 0.600000
v 0.600000 1.110773 0.400000
v 0.600000 1.000000 0.400000
v 0.600000 1.000000 0.600000
v 0.600000 3.000000 0.400000
v 0.600000 3.000000 0.600000
v 0.600000 1.110773 0.600000
v 0.600000 2.875000 0.400000
v 0.600000 2.875000 0.600000
v 0.700000 1.110773 0.400000
v 0.700000 1.000000 0.400000
v 0.700000 1.000000 0.600000
v 0.700000 3.000000 0.400000
v 0.700000 3.000000 0.600000
v 0.700000 1.110773 0.600000
v 0.700000 2.875000 0.400000
v 0.700000 2.875000 0.600000
v 0.800000 1.110773 0.400000
v 0.800000 1.000000 0.400000
v 0.800000 1.000000 0.600000
v 0.800000 3.000000 0.400000
v 0.800000 3.000000 0.600000
v 0.800000 1.110773 0.600000
v 0.800000 2.875000 0.400000
v 0.800000 2.875000 0.600000
v 1.000000 1.110773 0.400000
v 1.000000 1.000000 0.400000
v 1.000000 1.000000 0.600000
v 1.000000 3.000000 0.400000
v 1.000000 3.000000 0.600000
v 1.000000 1.110773 0.600000
v 1.000000 2.875000 0.400000
v 1.000000 2.875000 0.600000
v 1.100000 1.110773 0.400000
v 1.100000 1.000000 0.400000
v 1.100000 1.000000 0.600000
v 1.100000 3.000000 0.400000
v 1.100000 3.000000 0.600000
v 1.100000 1.110773 0.600000
v 1.100000 2.875000 0.400000
v 1.100000 2.875000 0.600000
v 1.300000 1.110773 0.400000
v 1.300000 1.000000 0.400000
v 1.300000 1.000000 0.600000
v 1.300000 3.000000 0.400000
v 1.300000 3.000000 0.600000
v 1.300000 1.110773 0.600000
v 1.300000 2.875000 0.400000
v 1.300000 2.875000 0.600000
v 1.400000 1.110773 0.400000
v 1.400000 1.000000 0.400000
v 1.400000 1.000000 0.600000
v 1.400000 3.000000 0.400000
v 1.400000 3.000000 0.600000
v 1.400000 1.110773 0.600000
v 1.400000 2.875000 0.400000
v 1.400000 2.875000 0.600000
v 1.600000 1.110773 0.400000
v 1.600000 1.000000 0.400000
v 1.600000 1.000000 0.600000
v 1.600000 3.000000 0.400000
v 1.600000 3.000000 0.600000
v 1.600000 1.110773 0.600000
v 1.600000 2.875000 0.400000
v 1.600000 2.875000 0.600000
v 1.700000 1.110773 0.400000
v 1.700000 1.000000 0.400000
v 1.700000 1.000000 0.600000
v 1.700000 3.000000 0.400000
v 1.700000 3.000000 0.600000
v 1.700000 1.110773 0.600000
v 1.700000 2.875000 0.400000
v 1.700000 2.875000 0.600000
v 1.900000 1.110773 0.400000
v 1.900000 1.000000 0.400000
v 1.900000 1.000000 0.600000
v 1.900000 3.000000 0.400000
v 1.900000 3.000000 0.600000
v 1.900000 1.110773 0.600000
v 1.900000 2.875000 0.400000
v 1.900000 2.875000 0.600000
v 2.000000 1.110773 0.400000
v 2.000000 1.000000 0.400000
v 2.000000 1.000000 0.600000
v 2.000000 3.000000 0.400000
v 2.000000 3.000000 0.600000
v 2.000000 1.110773 0.600000
v 2.000000 2.875000 0.400000
v 2.000000 2.875000 0.600000
v -0.700000 2.875424 0.400000
v -0.700000 2.875424 0.600000
v -0.600000 2.875424 0.400000
v -0.600000 2.875424 0.600000
v -0.400000 2.875424 0.400000
v -0.400000 2.875424 0.600000
v -0.300000 2.875424 0.400000
v -0.300000 2.875424 0.600000
v -0.100000 2.875424 0.400000
v -0.100000 2.875424 0.600000
v 0.000000 2.875424 0.400000
v 0.000000 2.875424 0.600000
v 0.200000 2.875424 0.400000
v 0.200000 2.875424 0.600000
v 0.300000 2.875424 0.400000
v 0.300000 2.875424 0.600000
v 0.400000 2.875424 0.400000
v 0.400000 2.875424 0.600000
v 0.600000 2.875424 0.400000
v 0.600000 2.875424 0.600000
v 0.700000 2.875424 0.400000
v 0.700000 2.875424 0.600000
v 0.800000 2.875424 0.400000
v 0.800000 2.875424 0.600000
v 1.000000 2.875424 0.400000
v 1.000000 2.875424 0.600000
v 1.100000 2.875424 0.400000
v 1.100000 2.875424 0.600000
v 1.300000 2.875424 0.400000
v 1.300000 2.875424 0.600000
v 1.400000 2.875424 0.400000
v 1.400000 2.875424 0.600000
v 1.600000 2.875424 0.400000
v 1.600000 2.875424 0.600000
v 1.700000 2.875424 0.400000
v 1.700000 2.875424 0.600000
v 1.900000 2.875424 0.400000
v 1.900000 2.875424 0.600000
v 2.000000 2.875424 0.400000
v 2.000000 2.875424 0.600000
vn -1.0000 -0.0000 -0.0000
vn -0.0000 -0.0000 -1.0000
vn -0.0000 -0.0000 1.0000
vn -0.0000 -1.0000 -0.0000
vn -0.0000 1.0000 -0.0000
vn 1.0000 -0.0000 -0.0000
vt 0.125000 0.750000
vt 0.375000 0.000000
vt 0.375000 1.000000
vt 0.625000 0.000000
vt 0.625000 1.000000
vt 0.875000 0.750000
vt 0.125000 0.500000
vt 0.375000 0.250000
vt 0.625000 0.250000
vt 0.875000 0.500000
vt 0.375000 0.750000
vt 0.625000 0.750000
vt 0.375000 0.500000
vt 0.625000 0.500000
vt 0.500000 1.000000
vt 0.500000 0.000000
vt 0.500000 0.250000
vt 0.500000 0.500000
vt 0.500000 0.750000
vt 0.436510 0.250000
vt 0.436510 0.500000
vt 0.436510 0.750000
vt 0.436510 0.000000
vt 0.436510 1.000000
vt 0.402693 0.250000
vt 0.402693 0.500000
vt 0.402693 0.750000
vt 0.402693 1.000000
vt 0.402693 0.000000
vt 0.388847 0.250000
vt 0.388847 0.500000
vt 0.388847 0.750000
vt 0.388847 0.000000
vt 0.388847 1.000000
vt 0.562500 1.000000
vt 0.562500 0.000000
vt 0.562500 0.250000
vt 0.562500 0.500000
vt 0.562500 0.750000
vt 0.593750 1.000000
vt 0.593750 0.000000
vt 0.593750 0.250000
vt 0.593750 0.500000
vt 0.593750 0.750000
vt 0.609375 1.000000
vt 0.609375 0.000000
vt 0.609375 0.250000
vt 0.609375 0.500000
vt 0.609375 0.750000
vt 0.388847 0.500000
vt 0.375000 0.500000
vt 0.375000 0.750000
vt 0.625000 0.500000
vt 0.625000 0.750000
vt 0.388847 0.750000
vt 0.609375 0.500000
vt 0.609375 0.750000
vt 0.388847 0.500000
vt 0.375000 0.500000
vt 0.375000 0.750000
vt 0.625000 0.500000
vt 0.625000 0.750000
vt 0.388847 0.750000
vt 0.609375 0.500000
vt 0.609375 0.750000
vt 0.388847 0.500000
vt 0.375000 0.500000
vt 0.375000 0.750000
vt 0.625000 0.500000
vt 0.625000 0.750000
vt 0.388847 0.750000
vt 0.609375 0.500000
vt 0.609375 0.750000
vt 0.388847 0.500000
vt 0.375000 0.500000
vt 0.375000 0.750000
vt 0.625000 0.500000
vt 0.625000 0.750000
vt 0.388847 0.750000
vt 0.609375 0.500000
vt 0.609375 0.750000
vt 0.388847 0.500000
vt 0.375000 0.500000
vt 0.375000 0.750000
vt 0.625000 0.500000
vt 0.625000 0.750000
vt 0.388847 0.750000
vt 0.609375 0.500000
vt 0.609375 0.750000
vt 0.388847 0.500000
vt 0.375000 0.500000
vt 0.375000 0.750000
vt 0.625000 0.500000
vt 0.625000 0.750000
vt 0.388847 0.750000
vt 0.609375 0.500000
vt 0.609375 0.750000
vt 0.388847 0.500000
vt 0.375000 0.500000
vt 0.375000 0.750000
vt 0.625000 0.500000
vt 0.625000 0.750000
vt 0.388847 0.750000
vt 0.609375 0.500000
vt 0.609375 0.750000
vt 0.388847 0.500000
vt 0.375000 0.500000
vt 0.375000 0.750000
vt 0.625000 0.500000
vt 0.625000 0.750000
vt 0.388847 0.750000
vt 0.609375 0.500000
vt 0.609375 0.750000
vt 0.388847 0.500000
vt 0.375000 0.500000
vt 0.375000 0.750000
vt 0.625000 0.500000
vt 0.625000 0.750000
vt 0.388847 0.750000
vt 0.609375 0.500000
vt 0.609375 0.750000
vt 0.388847 0.500000
vt 0.375000 0.500000
vt 0.375000 0.750000
vt 0.625000 0.500000
vt 0.625000 0.750000
vt 0.388847 0.750000
vt 0.609375 0.500000
vt 0.609375 0.750000
vt 0.388847 0.500000
vt 0.375000 0.500000
vt 0.375000 0.750000
vt 0.625000 0.500000
vt 0.625000 0.750000
vt 0.388847 0.750000
vt 0.609375 0.500000
vt 0.609375 0.750000
vt 0.388847 0.500000
vt 0.375000 0.500000
vt 0.375000 0.750000
vt 0.625000 0.500000
vt 0.625000 0.750000
vt 0.388847 0.750000
vt 0.609375 0.500000
vt 0.609375 0.750000
vt 0.388847 0.500000
vt 0.375000 0.500000
vt 0.375000 0.750000
vt 0.625000 0.500000
vt 0.625000 0.750000
vt 0.388847 0.750000
vt 0.609375 0.500000
vt 0.609375 0.750000
vt 0.388847 0.500000
vt 0.375000 0.500000
vt 0.375000 0.750000
vt 0.625000 0.500000
vt 0.625000 0.750000
vt 0.388847 0.750000
vt 0.609375 0.500000
vt 0.609375 0.750000
vt 0.388847 0.500000
vt 0.375000 0.500000
vt 0.375000 0.750000
vt 0.625000 0.500000
vt 0.625000 0.750000
vt 0.388847 0.750000
vt 0.609375 0.500000
vt 0.609375 0.750000
vt 0.388847 0.500000
vt 0.375000 0.500000
vt 0.375000 0.750000
vt 0.625000 0.500000
vt 0.625000 0.750000
vt 0.388847 0.750000
vt 0.609375 0.500000
vt 0.609375 0.750000
vt 0.388847 0.500000
vt 0.375000 0.500000
vt 0.375000 0.750000
vt 0.625000 0.500000
vt 0.625000 0.750000
vt 0.388847 0.750000
vt 0.609375 0.500000
vt 0.609375 0.750000
vt 0.388847 0.500000
vt 0.375000 0.500000
vt 0.375000 0.750000
vt 0.625000 0.500000
vt 0.625000 0.750000
vt 0.388847 0.750000
vt 0.609375 0.500000
vt 0.609375 0.750000
vt 0.388847 0.500000
vt 0.375000 0.500000
vt 0.375000 0.750000
vt 0.625000 0.500000
vt 0.625000 0.750000
vt 0.388847 0.750000
vt 0.609375 0.500000
vt 0.609375 0.750000
vt 0.388847 0.500000
vt 0.375000 0.500000
vt 0.375000 0.750000
vt 0.625000 0.500000
vt 0.625000 0.750000
vt 0.388847 0.750000
vt 0.609375 0.500000
vt 0.609375 0.750000
vt 0.388847 0.500000
vt 0.388847 0.750000
vt 0.388847 0.500000
vt 0.388847 0.750000
vt 0.388847 0.500000
vt 0.388847 0.750000
vt 0.388847 0.500000
vt 0.388847 0.750000
vt 0.388847 0.500000
vt 0.388847 0.750000
vt 0.388847 0.500000
vt 0.388847 0.750000
vt 0.388847 0.500000
vt 0.388847 0.750000
vt 0.388847 0.500000
vt 0.388847 0.750000
vt 0.388847 0.500000
vt 0.388847 0.750000
vt 0.388847 0.500000
vt 0.388847 0.750000
vt 0.388847 0.500000
vt 0.388847 0.750000
vt 0.388847 0.500000
vt 0.388847 0.750000
vt 0.388847 0.500000
vt 0.388847 0.750000
vt 0.388847 0.500000
vt 0.388847 0.750000
vt 0.388847 0.500000
vt 0.388847 0.750000
vt 0.388847 0.500000
vt 0.388847 0.750000
vt 0.388847 0.500000
vt 0.388847 0.750000
vt 0.388847 0.500000
vt 0.388847 0.750000
vt 0.388847 0.500000
vt 0.388847 0.750000
vt 0.388847 0.500000
vt 0.388847 0.750000
s 0
g Cube_Material
usemtl Material
f 33/46/1 2/4/1 4/9/1 34/47/1
f 34/47/2 4/9/2 8/14/2 35/48/2
f 6/12/3 36/49/3 44/57/3 41/54/3
f 36/49/3 6/12/3 2/5/3 33/45/3
f 3/7/4 7/13/4 5/11/4 1/1/4
f 8/14/5 4/10/5 2/6/5 6/12/5
f 15/22/3 12/19/3 9/15/3 16/24/3
f 14/21/6 11/18/6 12/19/6 15/22/6
f 13/20/2 10/17/2 11/18/2 14/21/2
f 16/23/1 9/16/1 10/17/1 13/20/1
f 20/29/1 16/23/1 13/20/1 17/25/1
f 17/25/2 13/20/2 14/21/2 18/26/2
f 18/26/6 14/21/6 15/22/6 19/27/6
f 19/27/3 15/22/3 16/24/3 20/28/3
f 23/32/3 19/27/3 20/28/3 24/34/3
f 22/31/6 18/26/6 19/27/6 23/32/6
f 21/30/2 17/25/2 18/26/2 22/31/2
f 24/33/1 20/29/1 17/25/1 21/30/1
f 1/2/1 24/33/1 21/30/1 3/8/1
f 3/8/2 21/30/2 22/31/2 7/13/2
f 36/49/4 35/48/4 43/56/4 44/57/4
f 5/11/3 23/32/3 24/34/3 1/3/3
f 12/19/3 28/39/3 25/35/3 9/15/3
f 11/18/6 27/38/6 28/39/6 12/19/6
f 10/17/2 26/37/2 27/38/2 11/18/2
f 9/16/1 25/36/1 26/37/1 10/17/1
f 28/39/3 32/44/3 29/40/3 25/35/3
f 27/38/6 31/43/6 32/44/6 28/39/6
f 26/37/2 30/42/2 31/43/2 27/38/2
f 25/36/1 29/41/1 30/42/1 26/37/1
f 32/44/3 36/49/3 33/45/3 29/40/3
f 31/43/6 35/48/6 36/49/6 32/44/6
f 30/42/2 34/47/2 35/48/2 31/43/2
f 29/41/1 33/46/1 34/47/1 30/42/1
f 41/54/3 44/57/3 52/65/3 49/62/3
f 39/52/4 38/51/4 46/59/4 47/60/4
f 8/14/5 6/12/5 41/54/5 40/53/5
f 7/13/2 22/31/2 37/50/2 38/51/2
f 22/31/5 23/32/5 42/55/5 37/50/5
f 23/32/3 5/11/3 39/52/3 42/55/3
f 35/48/2 8/14/2 40/53/2 43/56/2
f 5/11/4 7/13/4 38/51/4 39/52/4
f 51/64/2 48/61/2 56/69/2 59/72/2
f 52/65/4 51/64/4 59/72/4 60/73/4
f 138/151/3 146/159/3 224/237/3 222/235/3
f 40/53/5 41/54/5 49/62/5 48/61/5
f 38/51/2 37/50/2 45/58/2 46/59/2
f 44/57/4 43/56/4 51/64/4 52/65/4
f 43/56/2 40/53/2 48/61/2 51/64/2
f 42/55/3 39/52/3 47/60/3 50/63/3
f 54/67/2 53/66/2 61/74/2 62/75/2
f 56/69/5 57/70/5 65/78/5 64/77/5
f 50/63/3 47/60/3 55/68/3 58/71/3
f 47/60/4 46/59/4 54/67/4 55/68/4
f 49/62/3 52/65/3 60/73/3 57/70/3
f 45/58/5 50/63/5 58/71/5 53/66/5
f 48/61/5 49/62/5 57/70/5 56/69/5
f 46/59/2 45/58/2 53/66/2 54/67/2
f 61/74/5 66/79/5 74/87/5 69/82/5
f 65/78/3 68/81/3 76/89/3 73/86/3
f 60/73/4 59/72/4 67/80/4 68/81/4
f 59/72/2 56/69/2 64/77/2 67/80/2
f 58/71/3 55/68/3 63/76/3 66/79/3
f 55/68/4 54/67/4 62/75/4 63/76/4
f 57/70/3 60/73/3 68/81/3 65/78/3
f 133/146/1 138/151/1 222/235/1 221/234/1
f 71/84/4 70/83/4 78/91/4 79/92/4
f 74/87/3 71/84/3 79/92/3 82/95/3
f 64/77/5 65/78/5 73/86/5 72/85/5
f 62/75/2 61/74/2 69/82/2 70/83/2
f 68/81/4 67/80/4 75/88/4 76/89/4
f 67/80/2 64/77/2 72/85/2 75/88/2
f 66/79/3 63/76/3 71/84/3 74/87/3
f 63/76/4 62/75/4 70/83/4 71/84/4
f 83/96/2 80/93/2 88/101/2 91/104/2
f 84/97/4 83/96/4 91/104/4 92/105/4
f 73/86/3 76/89/3 84/97/3 81/94/3
f 178/191/6 173/186/6 231/244/6 232/245/6
f 72/85/5 73/86/5 81/94/5 80/93/5
f 70/83/2 69/82/2 77/90/2 78/91/2
f 76/89/4 75/88/4 83/96/4 84/97/4
f 75/88/2 72/85/2 80/93/2 83/96/2
f 88/101/5 89/102/5 97/110/5 96/109/5
f 154/167/3 162/175/3 228/241/3 226/239/3
f 82/95/3 79/92/3 87/100/3 90/103/3
f 79/92/4 78/91/4 86/99/4 87/100/4
f 81/94/3 84/97/3 92/105/3 89/102/3
f 77/90/5 82/95/5 90/103/5 85/98/5
f 80/93/5 81/94/5 89/102/5 88/101/5
f 78/91/2 77/90/2 85/98/2 86/99/2
f 98/111/3 95/108/3 103/116/3 106/119/3
f 99/112/2 96/109/2 104/117/2 107/120/2
f 86/99/2 85/98/2 93/106/2 94/107/2
f 92/105/4 91/104/4 99/112/4 100/113/4
f 91/104/2 88/101/2 96/109/2 99/112/2
f 90/103/3 87/100/3 95/108/3 98/111/3
f 87/100/4 86/99/4 94/107/4 95/108/4
f 89/102/3 92/105/3 100/113/3 97/110/3
f 108/121/4 107/120/4 115/128/4 116/129/4
f 102/115/2 101/114/2 109/122/2 110/123/2
f 95/108/4 94/107/4 102/115/4 103/116/4
f 97/110/3 100/113/3 108/121/3 105/118/3
f 93/106/5 98/111/5 106/119/5 101/114/5
f 96/109/5 97/110/5 105/118/5 104/117/5
f 94/107/2 93/106/2 101/114/2 102/115/2
f 100/113/4 99/112/4 107/120/4 108/121/4
f 109/122/5 114/127/5 122/135/5 117/130/5
f 113/126/3 116/129/3 124/137/3 121/134/3
f 107/120/2 104/117/2 112/125/2 115/128/2
f 106/119/3 103/116/3 111/124/3 114/127/3
f 103/116/4 102/115/4 110/123/4 111/124/4
f 105/118/3 108/121/3 116/129/3 113/126/3
f 186/199/3 194/207/3 236/249/3 234/247/3
f 104/117/5 105/118/5 113/126/5 112/125/5
f 121/134/3 124/137/3 132/145/3 129/142/3
f 119/132/4 118/131/4 126/139/4 127/140/4
f 112/125/5 113/126/5 121/134/5 120/133/5
f 110/123/2 109/122/2 117/130/2 118/131/2
f 116/129/4 115/128/4 123/136/4 124/137/4
f 115/128/2 112/125/2 120/133/2 123/136/2
f 114/127/3 111/124/3 119/132/3 122/135/3
f 111/124/4 110/123/4 118/131/4 119/132/4
f 131/144/2 128/141/2 136/149/2 139/152/2
f 132/145/4 131/144/4 139/152/4 140/153/4
f 50/63/6 45/58/6 199/212/6 200/213/6
f 120/133/5 121/134/5 129/142/5 128/141/5
f 118/131/2 117/130/2 125/138/2 126/139/2
f 124/137/4 123/136/4 131/144/4 132/145/4
f 123/136/2 120/133/2 128/141/2 131/144/2
f 122/135/3 119/132/3 127/140/3 130/143/3
f 134/147/2 133/146/2 141/154/2 142/155/2
f 136/149/5 137/150/5 145/158/5 144/157/5
f 130/143/3 127/140/3 135/148/3 138/151/3
f 127/140/4 126/139/4 134/147/4 135/148/4
f 129/142/3 132/145/3 140/153/3 137/150/3
f 125/138/5 130/143/5 138/151/5 133/146/5
f 128/141/5 129/142/5 137/150/5 136/149/5
f 126/139/2 125/138/2 133/146/2 134/147/2
f 141/154/5 146/159/5 154/167/5 149/162/5
f 145/158/3 148/161/3 156/169/3 153/166/3
f 140/153/4 139/152/4 147/160/4 148/161/4
f 139/152/2 136/149/2 144/157/2 147/160/2
f 138/151/3 135/148/3 143/156/3 146/159/3
f 135/148/4 134/147/4 142/155/4 143/156/4
f 137/150/3 140/153/3 148/161/3 145/158/3
f 85/98/1 90/103/1 210/223/1 209/222/1
f 151/164/4 150/163/4 158/171/4 159/172/4
f 154/167/3 151/164/3 159/172/3 162/175/3
f 144/157/5 145/158/5 153/166/5 152/165/5
f 142/155/2 141/154/2 149/162/2 150/163/2
f 148/161/4 147/160/4 155/168/4 156/169/4
f 147/160/2 144/157/2 152/165/2 155/168/2
f 146/159/3 143/156/3 151/164/3 154/167/3
f 143/156/4 142/155/4 150/163/4 151/164/4
f 163/176/2 160/173/2 168/181/2 171/184/2
f 164/177/4 163/176/4 171/184/4 172/185/4
f 153/166/3 156/169/3 164/177/3 161/174/3
f 130/143/6 125/138/6 219/232/6 220/233/6
f 152/165/5 153/166/5 161/174/5 160/173/5
f 150/163/2 149/162/2 157/170/2 158/171/2
f 156/169/4 155/168/4 163/176/4 164/177/4
f 155/168/2 152/165/2 160/173/2 163/176/2
f 168/181/5 169/182/5 177/190/5 176/189/5
f 165/178/1 170/183/1 230/243/1 229/242/1
f 162/175/3 159/172/3 167/180/3 170/183/3
f 159/172/4 158/171/4 166/179/4 167/180/4
f 161/174/3 164/177/3 172/185/3 169/182/3
f 157/170/5 162/175/5 170/183/5 165/178/5
f 160/173/5 161/174/5 169/182/5 168/181/5
f 158/171/2 157/170/2 165/178/2 166/179/2
f 173/186/5 178/191/5 186/199/5 181/194/5
f 177/190/3 180/193/3 188/201/3 185/198/3
f 166/179/2 165/178/2 173/186/2 174/187/2
f 172/185/4 171/184/4 179/192/4 180/193/4
f 171/184/2 168/181/2 176/189/2 179/192/2
f 170/183/3 167/180/3 175/188/3 178/191/3
f 167/180/4 166/179/4 174/187/4 175/188/4
f 169/182/3 172/185/3 180/193/3 177/190/3
f 186/199/3 183/196/3 191/204/3 194/207/3
f 187/200/2 184/197/2 192/205/2 195/208/2
f 176/189/5 177/190/5 185/198/5 184/197/5
f 174/187/2 173/186/2 181/194/2 182/195/2
f 180/193/4 179/192/4 187/200/4 188/201/4
f 179/192/2 176/189/2 184/197/2 187/200/2
f 178/191/3 175/188/3 183/196/3 186/199/3
f 175/188/4 174/187/4 182/195/4 183/196/4
f 195/208/6 192/205/6 193/206/6 196/209/6
f 190/203/6 189/202/6 194/207/6 191/204/6
f 183/196/4 182/195/4 190/203/4 191/204/4
f 185/198/3 188/201/3 196/209/3 193/206/3
f 109/122/2 101/114/2 213/226/2 215/228/2
f 184/197/5 185/198/5 193/206/5 192/205/5
f 182/195/2 181/194/2 189/202/2 190/203/2
f 188/201/4 187/200/4 195/208/4 196/209/4
f 197/210/5 198/211/5 200/213/5 199/212/5
f 201/214/5 202/215/5 204/217/5 203/216/5
f 205/218/5 206/219/5 208/221/5 207/220/5
f 209/222/5 210/223/5 212/225/5 211/224/5
f 213/226/5 214/227/5 216/229/5 215/228/5
f 217/230/5 218/231/5 220/233/5 219/232/5
f 221/234/5 222/235/5 224/237/5 223/236/5
f 225/238/5 226/239/5 228/241/5 227/240/5
f 229/242/5 230/243/5 232/245/5 231/244/5
f 233/246/5 234/247/5 236/249/5 235/248/5
f 74/87/3 82/95/3 208/221/3 206/219/3
f 98/111/6 93/106/6 211/224/6 212/225/6
f 53/66/1 58/71/1 202/215/1 201/214/1
f 58/71/3 66/79/3 204/217/3 202/215/3
f 181/194/1 186/199/1 234/247/1 233/246/1
f 106/119/3 114/127/3 216/229/3 214/227/3
f 189/202/2 181/194/2 233/246/2 235/248/2
f 146/159/6 141/154/6 223/236/6 224/237/6
f 101/114/1 106/119/1 214/227/1 213/226/1
f 157/170/2 149/162/2 225/238/2 227/240/2
f 66/79/6 61/74/6 203/216/6 204/217/6
f 170/183/3 178/191/3 232/245/3 230/243/3
f 77/90/2 69/82/2 205/218/2 207/220/2
f 90/103/3 98/111/3 212/225/3 210/223/3
f 173/186/2 165/178/2 229/242/2 231/244/2
f 194/207/6 189/202/6 235/248/6 236/249/6
f 149/162/1 154/167/1 226/239/1 225/238/1
f 122/135/3 130/143/3 220/233/3 218/231/3
f 93/106/2 85/98/2 209/222/2 211/224/2
f 114/127/6 109/122/6 215/228/6 216/229/6
f 69/82/1 74/87/1 206/219/1 205/218/1
f 42/55/3 50/63/3 200/213/3 198/211/3
f 125/138/2 117/130/2 217/230/2 219/232/2
f 45/58/2 37/50/2 197/210/2 199/212/2
f 162/175/6 157/170/6 227/240/6 228/241/6
f 117/130/1 122/135/1 218/231/1 217/230/1
f 141/154/2 133/146/2 221/234/2 223/236/2
f 82/95/6 77/90/6 207/220/6 208/221/6
f 37/50/1 42/55/1 198/211/1 197/210/1
f 61/74/2 53/66/2 201/214/2 203/216/2
g Cube.001_Cube.001
v -1.000000 1.005107 0.401052
v -1.000000 3.005107 0.401052
v -1.000000 1.005107 0.300000
v -1.000000 3.005107 0.300000
v 1.985932 1.005107 0.401052
v 1.985932 3.005107 0.401052
v 1.985932 1.005107 0.300000
v 1.985932 3.005107 0.300000
vn -1.0000 -0.0000 -0.0000
vn -0.0000 -0.0000 -1.0000
vn 1.0000 -0.0000 -0.0000
vn -0.0000 -0.0000 1.0000
vn -0.0000 -1.0000 -0.0000
vn -0.0000 1.0000 -0.0000
vt 0.375000 0.000000
vt 0.000000 0.005145
vt 0.125000 0.750000
vt 0.625000 0.000000
vt 0.000000 0.674953
vt 0.875000 0.750000
vt 0.375000 0.250000
vt 0.125000 0.500000
vt 0.625000 0.250000
vt 0.875000 0.500000
vt 1.000000 0.005145
vt 0.375000 0.750000
vt 1.000000 0.674953
vt 0.625000 0.750000
vt 0.375000 0.500000
vt 0.625000 0.500000
s 0
g Cube.001_Glass
usemtl Glass
f 237/250/7 238/253/7 240/258/7 239/256/7
f 239/256/8 240/258/8 244/265/8 243/264/8
f 243/264/9 244/265/9 242/263/9 241/261/9
f 241/260/10 242/262/10 238/254/10 237/251/10
f 239/257/11 243/264/11 241/261/11 237/252/11
f 244/265/12 240/259/12 238/255/12 242/263/12
