# Blender 3.5.1
# www.blender.org
mtllib Lavochka.mtl
g Cube_Cube
v 3.000000 0.600000 -1.000000
v 3.000000 0.600000 1.000000
v -3.000000 0.600000 -1.000000
v -3.000000 0.600000 1.000000
v 2.917456 1.000000 -0.917456
v 3.000000 0.917456 -1.000000
v 2.917456 1.000000 0.917456
v 3.000000 0.917456 1.000000
v -2.917456 1.000000 -0.917456
v -3.000000 0.917456 -1.000000
v -2.917456 1.000000 0.917456
v -3.000000 0.917456 1.000000
v 0.000000 0.600000 -1.000000
v 0.000000 0.600000 1.000000
v 0.000000 1.000000 0.917456
v 0.000000 0.917456 1.000000
v 0.000000 1.000000 -0.917456
v 0.000000 0.917456 -1.000000
v 1.500000 0.600000 1.000000
v 1.500000 0.917456 1.000000
v 1.458728 1.000000 -0.917456
v 1.500000 0.600000 -1.000000
v 1.458728 1.000000 0.917456
v 1.500000 0.917456 -1.000000
v 2.250000 0.600000 1.000000
v 2.250000 0.917456 1.000000
v 2.188092 1.000000 -0.917456
v 2.250000 0.600000 -1.000000
v 2.188092 1.000000 0.917456
v 2.250000 0.917456 -1.000000
v 2.633188 0.600000 1.000000
v 2.633188 0.917456 1.000000
v 2.560736 1.000000 -0.917456
v 2.633188 0.600000 -1.000000
v 2.560736 1.000000 0.917456
v 2.633188 0.917456 -1.000000
v -1.500000 0.600000 -1.000000
v -1.458728 1.000000 0.917456
v -1.500000 0.917456 -1.000000
v -1.500000 0.600000 1.000000
v -1.500000 0.917456 1.000000
v -1.458728 1.000000 -0.917456
v -2.250000 0.600000 -1.000000
v -2.188092 1.000000 0.917456
v -2.250000 0.917456 -1.000000
v -2.250000 0.600000 1.000000
v -2.250000 0.917456 1.000000
v -2.188092 1.000000 -0.917456
v -2.625000 0.600000 -1.000000
v -2.552774 1.000000 0.917456
v -2.625000 0.917456 -1.000000
v -2.625000 0.600000 1.000000
v -2.625000 0.917456 1.000000
v -2.552774 1.000000 -0.917456
v 2.633188 0.591727 -1.000000
v 2.541461 0.500000 -0.908273
v 2.341727 0.500000 -0.908273
v 2.250000 0.591727 -1.000000
v 2.341727 0.500000 0.908273
v 2.250000 0.591727 1.000000
v 2.541461 0.500000 0.908273
v 2.633188 0.591727 1.000000
v -2.625000 0.591727 1.000000
v -2.533273 0.500000 0.908273
v -2.341727 0.500000 0.908273
v -2.250000 0.591727 1.000000
v -2.341727 0.500000 -0.908273
v -2.250000 0.591727 -1.000000
v -2.533273 0.500000 -0.908273
v -2.625000 0.591727 -1.000000
v 2.541461 -0.800000 -0.908273
v 2.341727 -0.800000 -0.908273
v 2.341727 -0.800000 0.908273
v 2.541461 -0.800000 0.908273
v -2.533273 -0.800000 0.908273
v -2.341727 -0.800000 0.908273
v -2.341727 -0.800000 -0.908273
v -2.533273 -0.800000 -0.908273
vn -0.0000 -0.0000 1.0000
vn -1.0000 -0.0000 -0.0000
vn -0.0000 -1.0000 -0.0000
vn -0.0000 1.0000 -0.0000
vn 1.0000 -0.0000 -0.0000
vn -0.0000 0.7071 0.7071
vn 0.7071 0.7071 -0.0000
vn -0.7071 0.7071 -0.0000
vn -0.0000 0.7071 -0.7071
vn -0.0000 -0.0000 -1.0000
vn -0.0000 -0.7071 -0.7071
vn -0.7071 -0.7071 -0.0000
vn -0.0000 -0.7071 0.7071
vn 0.7071 -0.7071 -0.0000
vt 3.199785 1.562337
vt 1.400944 0.623873
vt 3.199785 0.623873
vt 3.199785 -0.237663
vt -0.399056 0.623873
vt 3.199785 0.623873
vt 1.400944 0.623873
vt -2.200215 1.562337
vt -2.200215 0.623873
vt -2.200215 0.623873
vt -0.399056 0.623873
vt -2.200215 -0.237663
vt 1.326654 0.983874
vt 3.125495 1.488047
vt 1.400944 0.909583
vt 3.199785 1.562337
vt 3.199785 0.909583
vt -0.324766 0.983874
vt 3.125495 -0.163373
vt -0.399056 0.909583
vt 3.199785 0.909583
vt 3.199785 -0.237663
vt 1.326654 0.983874
vt -2.125925 1.488047
vt 1.400944 0.909583
vt -2.200215 1.562337
vt -2.200215 0.909583
vt -2.125925 -0.163373
vt -0.324766 0.983874
vt -2.200215 0.909583
vt -2.200215 -0.237663
vt -0.399056 0.909583
vt 0.499786 0.623873
vt 0.499786 1.562337
vt 0.499786 -0.237663
vt 0.499786 0.623873
vt 0.499786 -0.163373
vt 0.499786 -0.237663
vt 0.499786 0.909583
vt 0.499786 1.488047
vt 0.499786 0.909583
vt 0.499786 1.562337
vt 1.849786 0.623873
vt 1.849786 -0.237663
vt 1.849786 0.909583
vt 1.849786 -0.237663
vt 1.812641 1.488047
vt 1.849786 0.623873
vt 1.849786 1.562337
vt 1.812641 -0.163373
vt 1.849786 0.909583
vt 1.849786 1.562337
vt 2.524786 -0.237663
vt -0.399056 0.623873
vt 2.524786 0.623873
vt 2.524786 -0.237663
vt 2.524786 0.909583
vt 2.469068 1.488047
vt 2.524786 1.562337
vt 1.400944 0.623873
vt 2.524786 0.623873
vt 2.469068 -0.163373
vt 2.524786 0.909583
vt 2.524786 1.562337
vt 2.869654 -0.237663
vt -0.399056 0.623873
vt 2.869654 0.623873
vt 2.869654 0.909583
vt 2.869654 -0.237663
vt 2.804448 1.488047
vt 2.869654 1.562337
vt 1.400944 0.623873
vt 2.869654 0.623873
vt 2.804448 -0.163373
vt 2.869654 0.909583
vt 2.869654 1.562337
vt -0.850214 1.562337
vt -0.850214 0.623873
vt -0.813069 -0.163373
vt -0.850214 1.562337
vt -0.850214 0.909583
vt -0.850214 -0.237663
vt -0.850214 0.623873
vt -0.850214 -0.237663
vt -0.850214 0.909583
vt -0.813069 1.488047
vt -1.525215 1.562337
vt 1.400944 0.623873
vt -1.525215 0.623873
vt -1.469497 -0.163373
vt -1.525215 0.909583
vt -1.525215 1.562337
vt -1.525215 -0.237663
vt -1.525215 0.623873
vt -0.399056 0.623873
vt -1.525215 -0.237663
vt -1.525215 0.909583
vt -1.469497 1.488047
vt -1.862714 1.562337
vt 1.400944 0.623873
vt -1.862714 0.623873
vt -1.797711 -0.163373
vt -1.862714 1.562337
vt -1.862714 0.909583
vt -1.862714 -0.237663
vt -1.862714 0.623873
vt -0.399056 0.623873
vt -1.862714 -0.237663
vt -1.862714 0.909583
vt -1.797711 1.488047
vt 2.869654 0.616428
vt 2.869654 1.562337
vt 1.400944 0.616428
vt 2.787100 1.479782
vt 2.787100 0.533873
vt 1.318389 0.533873
vt 2.607340 1.479782
vt 2.607340 0.533873
vt 1.318389 0.533873
vt 2.524786 0.616428
vt 2.524786 1.562337
vt 1.400944 0.616428
vt 2.607340 -0.155109
vt -0.316502 0.533873
vt 2.607340 0.533873
vt 2.524786 0.616428
vt -0.399056 0.616428
vt 2.524786 -0.237663
vt 2.787100 -0.155109
vt -0.316502 0.533873
vt 2.787100 0.533873
vt 2.869654 0.616428
vt 2.869654 -0.237663
vt -0.399056 0.616428
vt -1.862714 0.616428
vt -1.862714 -0.237663
vt -0.399056 0.616428
vt -1.780160 -0.155109
vt -1.780160 0.533873
vt -0.316502 0.533873
vt -1.607769 -0.155109
vt -1.607769 0.533873
vt -0.316502 0.533873
vt -1.525215 0.616428
vt -1.525215 -0.237663
vt -0.399056 0.616428
vt -1.607769 0.533873
vt -1.607769 1.479782
vt 1.318389 0.533873
vt -1.525215 0.616428
vt 1.400944 0.616428
vt -1.525215 1.562337
vt -1.780160 0.533873
vt -1.780160 1.479782
vt 1.318389 0.533873
vt -1.862714 0.616428
vt -1.862714 1.562337
vt 1.400944 0.616428
vt 2.787100 -0.636126
vt 2.787100 1.479782
vt 1.318389 -0.636126
vt 2.607340 -0.636126
vt 2.607340 1.479782
vt 1.318389 -0.636126
vt 2.607340 -0.155109
vt -0.316502 -0.636126
vt 2.607340 -0.636126
vt 2.787100 -0.155109
vt -0.316502 -0.636126
vt 2.787100 -0.636126
vt -1.780160 -0.155109
vt -1.780160 -0.636126
vt -0.316502 -0.636126
vt -1.607769 -0.155109
vt -1.607769 -0.636126
vt -0.316502 -0.636126
vt -1.607769 -0.636126
vt -1.607769 1.479782
vt 1.318389 -0.636126
vt -1.780160 -0.636126
vt -1.780160 1.479782
vt 1.318389 -0.636126
s 0
g Cube_Material
usemtl Material
f 52/106/1 53/109/1 12/30/1 4/10/1
f 4/11/2 12/32/2 10/25/2 3/7/2
f 34/71/3 1/1/3 2/4/3 31/65/3
f 54/110/4 9/24/4 11/28/4 50/102/4
f 1/2/5 6/15/5 8/20/5 2/5/5
f 50/102/6 11/28/6 12/31/6 53/108/6
f 5/13/7 7/18/7 8/20/7 6/15/7
f 11/29/8 9/23/8 10/25/8 12/32/8
f 33/70/9 5/14/9 6/16/9 36/76/9
f 34/73/10 36/75/10 6/17/10 1/3/10
f 37/78/10 39/81/10 18/41/10 13/33/10
f 42/86/9 17/40/9 18/42/9 39/80/9
f 23/50/6 15/37/6 16/38/6 20/46/6
f 21/47/4 17/40/4 15/37/4 23/50/4
f 37/77/3 13/34/3 14/35/3 40/82/3
f 19/43/1 20/45/1 16/39/1 14/36/1
f 25/55/1 26/57/1 20/45/1 19/43/1
f 27/58/4 21/47/4 23/50/4 29/62/4
f 29/62/6 23/50/6 20/46/6 26/56/6
f 13/33/10 18/41/10 24/51/10 22/48/10
f 17/40/9 21/47/9 24/52/9 18/42/9
f 13/34/3 22/49/3 19/44/3 14/35/3
f 35/74/6 29/62/6 26/56/6 32/69/6
f 33/70/4 27/58/4 29/62/4 35/74/4
f 31/67/1 32/68/1 26/57/1 25/55/1
f 22/48/10 24/51/10 30/63/10 28/61/10
f 21/47/9 27/58/9 30/64/9 24/52/9
f 22/49/3 28/59/3 25/53/3 19/44/3
f 2/6/1 8/21/1 32/68/1 31/67/1
f 5/14/4 33/70/4 35/74/4 7/19/4
f 7/19/6 35/74/6 32/69/6 8/22/6
f 28/61/10 30/63/10 36/75/10 34/73/10
f 27/58/9 33/70/9 36/76/9 30/64/9
f 46/94/1 52/106/1 63/135/1 66/144/1
f 43/87/3 37/77/3 40/82/3 46/93/3
f 48/98/9 42/86/9 39/80/9 45/92/9
f 43/89/10 45/91/10 39/81/10 37/78/10
f 15/37/6 38/79/6 41/84/6 16/38/6
f 17/40/4 42/86/4 38/79/4 15/37/4
f 14/36/1 16/39/1 41/85/1 40/83/1
f 49/101/10 51/104/10 45/91/10 43/89/10
f 54/110/9 48/98/9 45/92/9 51/103/9
f 25/54/2 28/60/2 58/122/2 60/127/2
f 38/79/6 44/90/6 47/96/6 41/84/6
f 42/86/4 48/98/4 44/90/4 38/79/4
f 40/83/1 41/85/1 47/97/1 46/94/1
f 3/8/3 49/99/3 52/105/3 4/12/3
f 9/24/9 54/110/9 51/103/9 10/26/9
f 3/9/10 10/27/10 51/104/10 49/101/10
f 44/90/6 50/102/6 53/108/6 47/96/6
f 48/98/4 54/110/4 50/102/4 44/90/4
f 46/94/1 47/97/1 53/109/1 52/106/1
f 34/72/5 31/66/5 62/134/5 55/113/5
f 52/107/2 49/100/2 70/158/2 63/137/2
f 28/61/10 34/73/10 55/111/10 58/120/10
f 43/88/5 46/95/5 66/146/5 68/151/5
f 69/153/10 67/147/10 77/177/10 78/180/10
f 49/101/10 43/89/10 68/150/10 70/156/10
f 31/67/1 25/55/1 60/126/1 62/132/1
f 56/114/11 57/117/11 58/121/11 55/112/11
f 57/119/12 59/124/12 60/127/12 58/122/12
f 59/123/13 61/129/13 62/133/13 60/128/13
f 55/113/14 62/134/14 61/130/14 56/116/14
f 64/138/13 65/141/13 66/145/13 63/136/13
f 68/151/14 66/146/14 65/143/14 67/149/14
f 67/148/11 69/154/11 70/157/11 68/152/11
f 69/155/12 64/140/12 63/137/12 70/158/12
f 57/118/10 56/115/10 71/159/10 72/162/10
f 78/181/3 77/178/3 76/174/3 75/171/3
f 72/163/3 71/160/3 74/168/3 73/165/3
f 59/124/2 57/119/2 72/164/2 73/166/2
f 65/142/1 64/139/1 75/172/1 76/175/1
f 64/140/2 69/155/2 78/182/2 75/173/2
f 56/116/5 61/130/5 74/169/5 71/161/5
f 67/149/5 65/143/5 76/176/5 77/179/5
f 61/131/1 59/125/1 73/167/1 74/170/1
